<?xml version="1.0" encoding="UTF-8"?>
<svg viewBox="0 0 16 16" version="1.1" xmlns="http://www.w3.org/2000/svg" xmlns:xlink="http://www.w3.org/1999/xlink">
    <title>github</title>
    <g id="github" stroke="none" stroke-width="1" fill="none" fill-rule="evenodd">
        <g id="Group" fill-rule="nonzero">
            <rect id="Rectangle" x="0" y="0" width="16" height="16"></rect>
            <path d="M5.67419,12.5000111 C5.67419,12.5625111 5.6,12.6125111 5.50645,12.6125111 C5.4,12.6218111 5.32581,12.5718111 5.32581,12.5000111 C5.32581,12.4375111 5.4,12.3875111 5.49355,12.3875111 C5.59032,12.3781111 5.67419,12.4281111 5.67419,12.5000111 Z M5.3311218,12.4566703 C5.3085418,12.5191703 5.3730518,12.5910703 5.4698318,12.6098703 C5.5537018,12.6410703 5.6504718,12.6098703 5.6698318,12.5473703 C5.6891818,12.4848703 5.6278918,12.4129703 5.5311218,12.3848703 C5.4472518,12.3629703 5.3537018,12.3941703 5.3311218,12.4566703 Z M6.47902593,12.3804822 C6.38547593,12.4023822 6.32096593,12.4617822 6.33064593,12.5335822 C6.34031593,12.5960822 6.42418593,12.6367822 6.52096593,12.6148822 C6.61451593,12.5929822 6.67902593,12.5335822 6.66935593,12.4710822 C6.65967593,12.4117822 6.57257593,12.3710822 6.47902593,12.3804822 Z M7.90967375,1 C3.9947575,1 1,4.04834343 1,8.06357709 C1,11.2740076 2.97015875,14.0213454 5.7842725,14.9881986 C6.14556,15.0548046 6.27258375,14.8260837 6.27258375,14.6379378 C6.27258375,14.4584071 6.26411375,13.4683947 6.26411375,12.8604176 C6.26411375,12.8604176 4.2883025,13.2947002 3.87338625,11.9977811 C3.87338625,11.9977811 3.55161375,11.1553395 3.0887125,10.9381982 C3.0887125,10.9381982 2.44234125,10.4837207 3.13387125,10.4924286 C3.13387125,10.4924286 3.8366975,10.5503268 4.22338625,11.2392687 C4.84153,12.3567498 5.87741625,12.0353918 6.281045,11.8443741 C6.34597,11.3811887 6.52944,11.0598307 6.73265875,10.8687204 C5.15484125,10.6892824 3.56290125,10.454818 3.56290125,7.66986952 C3.56290125,6.87377427 3.77741625,6.47427688 4.22903,5.96477296 C4.15564375,5.77659926 3.9157275,5.00076375 4.30241625,3.99912536 C4.89234125,3.81096093 6.25,4.78075069 6.25,4.78075069 C6.814515,4.61863581 7.42137125,4.53468809 8.022575,4.53468809 C8.6237875,4.53468809 9.2306875,4.61863581 9.79515,4.78075069 C9.79515,4.78075069 11.1528,3.80806138 11.742725,3.99912536 C12.129475,5.00366329 11.88955,5.77659926 11.8161375,5.96477296 C12.267725,6.47716715 12.5443125,6.87666455 12.5443125,7.66986952 C12.5443125,10.4634332 10.8818125,10.6864106 9.3040125,10.8687204 C9.5637125,11.0974414 9.7838625,11.531724 9.7838625,12.211958 C9.7838625,13.1876117 9.775375,14.3947655 9.775375,14.6321016 C9.775375,14.8203402 9.905225,15.0489685 10.2637125,14.9824551 C13.0862875,14.0213454 15,11.2740076 15,8.06357709 C15,4.04834343 11.824625,1 7.90967375,1 Z M4.404835,11.4031 C4.362905,11.4344 4.372585,11.5063 4.427415,11.5656 C4.479035,11.6156 4.553225,11.6375 4.595165,11.5969 C4.637095,11.5656 4.627415,11.4938 4.572585,11.4344 C4.520965,11.3844 4.446775,11.3625 4.404835,11.4031 Z M3.39355055,10.4455972 C3.37097055,10.4861972 3.40322055,10.5361972 3.46774055,10.5674972 C3.51935055,10.5986972 3.58387055,10.5893972 3.60645055,10.5455972 C3.62903055,10.5049972 3.59677055,10.4549972 3.53226055,10.4236972 C3.46774055,10.4049972 3.41613055,10.4143972 3.39355055,10.4455972 Z M4.37757733,11.3874964 C4.32596733,11.4280964 4.34531733,11.5218964 4.41950733,11.5812964 C4.49370733,11.6530964 4.58725733,11.6624964 4.62918733,11.6124964 C4.67112733,11.5718964 4.65176733,11.4780964 4.58725733,11.4187964 C4.51628733,11.3468964 4.41950733,11.3374964 4.37757733,11.3874964 Z M4.40968375,11.3748062 C4.35806375,11.4061062 4.35806375,11.4873062 4.40968375,11.5592062 C4.46129375,11.6311062 4.54839375,11.6623062 4.59032375,11.6311062 C4.64193375,11.5905062 4.64193375,11.5092062 4.59032375,11.4373062 C4.54516375,11.3655062 4.46129375,11.3342062 4.40968375,11.3748062 Z" id="Shape" fill="currentColor"></path>
        </g>
    </g>
</svg>