<?xml version="1.0" encoding="UTF-8"?>
<svg viewBox="0 0 16 16" version="1.1" xmlns="http://www.w3.org/2000/svg" xmlns:xlink="http://www.w3.org/1999/xlink">
    <title>insta</title>
    <g id="insta" stroke="none" stroke-width="1" fill="none" fill-rule="evenodd">
        <g id="Group">
            <rect id="Rectangle" x="0" y="0" width="16" height="16"></rect>
            <path d="M8.00160036,4.4117225 C6.01517743,4.4117225 4.4129404,6.0148525 4.4129404,8.0024025 C4.4129404,9.9899025 6.01517743,11.5930025 8.00160036,11.5930025 C9.9879933,11.5930025 11.5902004,9.9899025 11.5902004,8.0024025 C11.5902004,6.0148525 9.9879933,4.4117225 8.00160036,4.4117225 Z M8.00160036,10.3367025 C6.71790579,10.3367025 5.66849065,9.2899025 5.66849065,8.0024025 C5.66849065,6.7148525 6.71478753,5.6679725 8.00160036,5.6679725 C9.28838321,5.6679725 10.3346001,6.7148525 10.3346001,8.0024025 C10.3346001,9.2899025 9.28518499,10.3367025 8.00160036,10.3367025 Z M12.574052,4.2648525 C12.574052,4.7304725 12.1992609,5.1023525 11.7370185,5.1023525 C11.2715779,5.1023525 10.899985,4.7273525 10.899985,4.2648525 C10.899985,3.8023525 11.2747761,3.4273525 11.7370185,3.4273525 C12.1992609,3.4273525 12.574052,3.8023525 12.574052,4.2648525 Z M14.9508274,5.1148525 C14.897757,3.9929725 14.6415997,2.9992225 13.8201576,2.1804725 C13.0019136,1.3617225 12.0086671,1.1054725 10.887492,1.0492225 C9.73183606,0.9835925 6.26815644,0.9835925 5.11255049,1.0492225 C3.99442364,1.1023425 3.00122717,1.3585925 2.17981496,2.1773525 C1.35839276,2.9961025 1.10541375,3.9898525 1.04919508,5.1117225 C0.983601639,6.2679825 0.983601639,9.7336025 1.04919508,10.8899025 C1.10228549,12.0117025 1.35839276,13.0055025 2.17981496,13.8242025 C3.00122717,14.6430025 3.99130538,14.8992025 5.11255049,14.9555025 C6.26815644,15.0211025 9.73183606,15.0211025 10.887492,14.9555025 C12.0086671,14.9024025 13.0019136,14.6461025 13.8201576,13.8242025 C14.6385015,13.0055025 14.8945588,12.0117025 14.9508274,10.8899025 C15.0163909,9.7336025 15.0163909,6.2711025 14.9508274,5.1148525 Z M13.4578595,12.1305025 C13.2142952,12.7430025 12.7426581,13.2149025 12.127401,13.4617025 C11.2060145,13.8274025 9.01973293,13.7430025 8.00160036,13.7430025 C6.98338783,13.7430025 4.79397803,13.8242025 3.87573979,13.4617025 C3.26358096,13.2180025 2.79197379,12.7461025 2.54523131,12.1305025 C2.17981496,11.2086025 2.26413797,9.0211025 2.26413797,8.0024025 C2.26413797,6.9836025 2.18293323,4.7929725 2.54523131,3.8742225 C2.78884554,3.2617225 3.2604627,2.7898525 3.87573979,2.5429725 C4.79710629,2.1773525 6.98338783,2.2617225 8.00160036,2.2617225 C9.01973293,2.2617225 11.2091127,2.1804725 12.127401,2.5429725 C12.7395598,2.7867225 13.2111969,3.2586025 13.4578595,3.8742225 C13.8233558,4.7961025 13.7390028,6.9836025 13.7390028,8.0024025 C13.7390028,9.0211025 13.8233558,11.2117025 13.4578595,12.1305025 Z" id="Shape" fill="currentColor" fill-rule="nonzero"></path>
        </g>
    </g>
</svg>