<svg xmlns="http://www.w3.org/2000/svg" viewBox="0 0 438.77 512.36"><g id="Layer_2" data-name="Layer 2"><g id="Icon"><path d="M91.25,117.09c-19.59,2.82-39.29,6-56.76,15.82-.58.32-.06,1.22.52.89C52.26,123.93,72.12,120.86,91.5,118c.58-.09.33-1-.25-.89Z"/><path d="M71.24,116.58c-13.72,1.93-28.34,5.94-40.2,13.36a.42.42,0,0,0,.42.72c13.09-6,25.62-11.15,39.95-13.49.38-.06.21-.64-.17-.59Z"/><path d="M55.79,116.28A177.71,177.71,0,0,0,25,127.37c-.65.3-.09,1.27.56,1a186.94,186.94,0,0,1,30.37-11.48.29.29,0,0,0-.15-.57Z"/><path d="M136.84,130c-24.54.31-49.81,3-73.27,10.52a.62.62,0,0,0,.33,1.19c24.09-5.94,48-10.43,72.94-10.74a.49.49,0,0,0,0-1Z"/><path d="M137.26,129.88c-6.54,1.13-16.2,2.56-20,8.87-4.06,6.72,5.73,9.61,10.29,11.71.63.29,1.18-.59.56-.94-2.44-1.37-5-2.49-7.45-3.88-4.78-2.77-3-6.81,1.1-9.63,4.6-3.2,10.28-4.4,15.65-5.64.33-.07.18-.55-.14-.49Z"/><path d="M185.84,134a397.68,397.68,0,0,1,64.38,8.37c.58.12.82-.75.24-.89a312.39,312.39,0,0,0-64.62-7.76c-.18,0-.18.27,0,.28Z"/><path d="M188.89,133.33a109.3,109.3,0,0,1,15.68,6.88c4.38,2.37,9.57,4.86,11.93,9.45.26.52,1,.07.77-.45-2.14-4.36-6.62-6.57-10.75-8.74a112,112,0,0,0-17.59-7.29c-.1,0-.14.11,0,.15Z"/><path d="M237.3,122a302.93,302.93,0,0,1,52.32,13.73c.77.28,1.09-.94.33-1.22a231,231,0,0,0-52.59-12.94c-.24,0-.3.39-.06.43Z"/><path d="M247.83,118.43c16.9,2.77,32.62,8.39,48.82,13.68.79.26,1.07-.93.34-1.22a185,185,0,0,0-49.15-12.51s0,.05,0,.05Z"/><path d="M262.3,116.15c14.46,3.09,28.22,7.71,42.07,12.84.62.23.89-.77.27-1-13.69-5.09-27.76-10.11-42.33-11.87,0,0,0,0,0,0Z"/><path d="M364.69,383.81c-14.86,1.77-27.18-3.41-38.29-12.92a.58.58,0,0,0-.82.82c9.21,10.89,25.53,15.16,39.19,12.65.3-.05.24-.59-.08-.55Z"/><path d="M388.36,400.41A113.18,113.18,0,0,1,358.14,408c-10,1-19.83.17-29.84-.25-.62,0-.78,1-.15,1.09,20,3.27,42,.58,60.43-7.93.29-.13.08-.63-.22-.52Z"/><path d="M408.3,267.53c.95-6.87-.16-13.83-1.07-20.65s-1.84-13.46-3.39-20.07c-2.82-12-7.87-23.8-17.07-32.3-.72-.66-1.8.4-1.08,1.09,9.19,8.81,14.24,20.19,17.13,32.44,3,12.76,5.09,26.3,4.94,39.41,0,.3.49.39.54.08Z"/><path d="M365.35,179.73a70.23,70.23,0,0,0-37.42,13c-.63.45,0,1.49.61,1a75.48,75.48,0,0,1,36.81-13.36c.44,0,.45-.73,0-.71Z"/><path d="M305.91,139.18c9.42-4.36,20.72-11.84,21.18-23.35,0-.58-.95-.73-1-.14-1.74,12-11,17.18-20.24,23.33a.09.09,0,0,0,.09.16Z"/><path d="M17.55,136.64c-3.37-2.73-7.2-4.93-9.84-8.44a21.21,21.21,0,0,1-4.1-13.67c0-.38-.62-.48-.68-.09-1.71,10.9,6.21,17.22,14.19,22.76.33.22.74-.3.43-.56Z"/><path d="M144.33,494.81c35.37,2.37,69.94,1.42,104.86-5,23.92-4.37,46.56-11.21,67.17-24.41a.26.26,0,0,0-.26-.44c-21.15,12.26-43.21,19.4-67.21,23.78-34.78,6.35-69.32,7.33-104.56,5.58-.3,0-.29.44,0,.46Z"/><path d="M93.13,156.49c12.83,3.22,26.7,4,39.85,5,15.35,1.13,30.77,1.51,46.16,1.31,14.64-.19,29.28-.92,43.83-2.51,12-1.32,24.42-2.85,36-6.33a.33.33,0,0,0-.17-.63c-26.52,5.8-53.36,8.11-80.49,8.43q-21.93.27-43.85-1.17c-13.87-.89-27.51-3.13-41.32-4.47-.22,0-.26.34-.05.39Z"/><path d="M160.47,352.61c-7.09,19.26-13.1,39.94-19.2,58.94-.15.48.6.69.76.21,6.11-19.05,13.23-39.29,18.67-59.09,0-.14-.18-.2-.23-.06Z"/><path d="M76.31,359c5.48,7.69,12.41,14.52,18.76,21.47,5.84,6.4,11.75,12.73,17.63,19.09.43.46,1.12-.23.69-.7-12.3-13.31-24.89-26.43-37-39.94,0-.06-.15,0-.11.08Z"/><path d="M255.29,361.27c-12,12-23.39,24.65-34.93,37.08-.45.49.28,1.22.73.73,11.55-12.44,23.33-24.74,34.39-37.61.12-.13-.07-.33-.19-.2Z"/><path d="M231.6,255.6c-1.3-2.69-4.49-4.78-6.6-6.87-2.5-2.47-4.95-5-7.36-7.56-.52-.55-1.35.28-.83.83,2.53,2.7,5.11,5.33,7.77,7.9,2,2,4.22,4.83,6.91,5.83.09,0,.14-.07.11-.13Z"/><path d="M195.2,247.49c3.24-7.1,5-15.3,7.11-22.82a.64.64,0,0,0-1.24-.34c-2.23,7.46-5.06,15.34-6.1,23.06,0,.13.16.24.23.1Z"/><path d="M104.42,254.25c2.08-1.8,4.12-3.65,6.15-5.52a80.18,80.18,0,0,0,6-5.62.39.39,0,0,0-.56-.55,82.14,82.14,0,0,0-5.94,5.72c-2,1.92-3.92,3.85-5.83,5.84-.08.08,0,.21.14.13Z"/><path d="M30.21,107.23C63.84,97.17,97.59,89.45,132.69,86.82a407.67,407.67,0,0,1,104.39,5.6,455.56,455.56,0,0,1,57.12,14.86c1.2.39,1.67-1.45.51-1.87C229.43,81.83,155.89,78.59,88,91,68.36,94.59,48.65,99.45,30,106.48c-.47.17-.29.9.2.75Z"/><path d="M159.16,139.05c-11.26-12.24-16.62-29.19-13.56-45.65,3.16-16.94,13.9-28.9,28-38,11.26-7.26,24.56-14.67,29.51-28C206.6,18,204.33,4.55,194.25.1a1,1,0,0,0-1,1.7c15.63,10.25,7.46,29.32-3.91,39.14-11.22,9.69-25.49,15.13-34.9,27A55.17,55.17,0,0,0,158,140.24c.75.79,1.93-.4,1.19-1.19Z"/><path d="M172.44,104.91A50.14,50.14,0,0,1,186,70.35c8.53-9,20.29-12.87,30.83-18.79C234.29,41.75,245,21.3,237.06,1.67c-.38-.95-1.87-.6-1.57.43,3.36,11.3,2.43,23.22-3.88,33.36C225,46,213.62,50.93,203,56.36c-9.12,4.66-17.39,10.28-23.13,19a49.06,49.06,0,0,0-8.12,29.59.36.36,0,0,0,.71,0Z"/><path d="M15.34,219.76q-.06,66.45-.17,132.91,0,30.52.27,61.05c.07,8.51.15,17,.29,25.53.11,7.06-.75,15.19,2.92,21.54,4,6.89,11.53,11.3,18.89,13.74,12.17,4,25.87,5.78,38.65,6.51,2.25.12,2.2-3.28,0-3.47-11.86-1.05-23.8-2.65-35.3-5.81-7.39-2-15.5-6.14-19.34-13.11-3.54-6.43-2.26-16-2.38-23.21q-.23-12.17-.32-24.34c-.37-40.46-.42-80.93-.59-121.4q-.15-35-.58-69.94a1.17,1.17,0,0,0-2.34,0Z"/><path d="M15.35,157.91c-.08,14.62,0,29.23-.11,43.85a1.27,1.27,0,0,0,2.54,0c-.28-14.63-.66-29.24-1.46-43.85a.49.49,0,0,0-1,0Z"/><path d="M18.87,113.11c-15.06,9.59,8.69,20.3,16.34,23,21.8,7.73,45.33,10.43,68.22,12.5,59.91,5.42,121.5,7.32,179.56-10.88,8.7-2.73,18.08-5.38,25.84-10.28,2.4-1.52,5.26-3.56,6.08-6.45,1-3.41-1.48-6.26-4.78-6.82-.81-.13-1.18,1.08-.35,1.27,5.36,1.21,4,5,1.9,7.21a17.4,17.4,0,0,1-3.53,2.74,56.77,56.77,0,0,1-10.55,5A147.59,147.59,0,0,1,278.82,136a432.7,432.7,0,0,1-77.89,11.19c-27.3,1.51-54.66.61-81.92-1.33-23.8-1.68-47.76-3.75-70.9-9.87a116.73,116.73,0,0,1-21.24-7.34c-2.94-1.42-6.1-3.07-8.28-5.56-2.75-3.14-1.33-5.93,1.23-8.76.57-.63-.17-1.72-.95-1.22Z"/><path d="M3.8,120.12c3-16.82,24.24-24.2,38.32-28.68,21.92-7,45.27-10,68.06-12.39A488,488,0,0,1,272.29,89.12c12.3,2.88,24.29,5.69,35.75,11.12,4.36,2.08,9.15,4.29,12.45,7.94,4.64,5.12,5.05,12,4,18.55-.47,3,3.68,4.3,4.64,1.28,3.14-9.87,1-20-7.33-26.63-7.39-5.86-17.27-9.66-26.17-12.57-13.73-4.48-28.33-7.09-42.52-9.67-14.48-2.63-29.11-4.7-43.75-6.24-55-5.78-112.63-2-165.69,14.23C29.73,91.4.44,100.6,2.75,120c.07.54.93.79,1,.14Z"/><path d="M327.36,462.6c-3,17.23-25.23,24.62-39.61,29.08-22.42,7-46.33,10-69.62,12.27A496.94,496.94,0,0,1,53.2,492.26c-11.76-2.82-22.93-5.95-33.69-11.57-3.88-2-7.78-4.23-10.17-8-3.28-5.22-3.5-12.08-3.78-18-.14-3.15-4.48-3-4.81,0-1,9.57.36,19.91,8.18,26.41,7.2,6,17.22,9.76,26,12.7,13.86,4.63,28.7,7.24,43.05,9.84s29.11,4.71,43.75,6.25c55,5.77,112.63,2,165.69-14.23,13.94-4.26,43.26-13.47,41-32.85-.06-.54-.93-.79-1-.14Z"/><path d="M3.05,116.93c-1.29,27.89-1.18,55.93-1.34,83.85Q1.23,286.12.65,371.45.37,415.7,0,460C0,464,6.26,464,6.31,460c.69-55.39.49-110.81,0-166.21-.42-49.19-1-98.37-2-147.56-.19-9.77-.41-19.51-1-29.26a.16.16,0,0,0-.31,0Z"/><path d="M327.83,465c1.29-27.74,1.18-55.63,1.34-83.4q.48-85,1.06-170,.28-44.34.65-88.67c0-4.07-6.26-4.07-6.31,0-.69,55.23-.49,110.49,0,165.72.42,49,1,98,2,147,.19,9.78.41,19.53,1,29.3a.16.16,0,0,0,.31,0Z"/><path d="M331.08,155.62c21.79,0,44.68.19,64.65,10.07,9.57,4.75,17.62,11.33,22.91,20.73,5.42,9.64,6.95,20.79,8.19,31.61a485.19,485.19,0,0,1,2.13,80q-1.05,20.54-3.39,41c-1.37,12.23-3.17,24.5-7.88,36-4.48,10.92-11.7,20.13-21.89,26.22-9.76,5.84-20.93,8.61-32.05,10.48-5.62.95-3.23,9.5,2.36,8.56,21.05-3.52,41.58-11.45,53.73-30,7.19-11,10.91-24.13,13-37,2.29-14.37,3.54-29,4.57-43.49A495.5,495.5,0,0,0,436,220c-1.26-11.29-2.63-22.64-7.26-33.12a53.93,53.93,0,0,0-21.29-24.26c-22.58-14-51.38-15.26-77-11.33-2.51.38-1.85,4.36.59,4.36Z"/><path d="M328.77,419.75c8.42,3,19.6,2.29,28.44,1.79a118.94,118.94,0,0,0,12.49-1.38c5.09-.84,11.18-1.54,15.51-4.41,2.44-1.62,2.65-6.59-.92-7.08-4.83-.67-9.39.74-14.14,1.61-4.48.83-8.94,1.75-13.45,2.42-4.28.64-8.59,1.06-12.91,1.31-5,.28-10.19-.11-15,1.15-2.39.63-2.12,3.84,0,4.59Z"/><path d="M384.07,199.39c10.67,13.51,11.68,31.79,13.13,48.23a280.36,280.36,0,0,1,.86,42.88c-1,15.43-3.49,30.71-6.13,45.93-2.15,12.35-5.4,26.66-16.78,34.1a33.47,33.47,0,0,1-44.86-7c-2-2.57-5.72,1.08-3.62,3.62,10,12.09,24.66,17.14,39.9,13.15,13.77-3.6,24.23-14.4,28.21-28.06,4.77-16.42,6.73-34.34,8.48-51.31a265.88,265.88,0,0,0,.41-47.63c-1.53-19.9-2.52-41.78-15.45-58.09-2.35-3-6.47,1.22-4.15,4.16Z"/><path d="M330.75,198.33c10.25-3.71,19.66-8.78,30.77-9.44,9.49-.57,16.5,3.41,22.52,10.52,2.47,2.91,6.69-1.31,4.2-4.2-6.61-7.7-14.91-12.22-25.24-11.65-11.69.65-23.95,6.18-33,13.41-.63.5.05,1.62.79,1.36Z"/><path d="M329.71,148l-.12-1a.25.25,0,0,0-.5,0c0,.34-.09.67-.13,1-.06.48.81.48.75,0Z"/><path d="M405.47,178.63c-8.82-9.49-21.66-13.44-34.17-15.15a102,102,0,0,0-23.3-.54c-6.68.62-15.92,1.13-21.64,4.91-1.39.92-1,3.51.91,3.38,3.13-.22,6.14-1.49,9.21-2.18a91.37,91.37,0,0,1,11.52-1.8,116.39,116.39,0,0,1,20.45,0c12.07,1,26.92,3.79,36.14,12.3a.62.62,0,0,0,.88-.88Z"/><path d="M327.6,384c10.43,13.18,31.13,14.67,46.11,9.57,16.81-5.73,27.23-21,32.87-37.17,7.13-20.38,7.44-42.69,8.45-64,1.09-22.89,1.94-46.49-5-68.63-6.22-20-20-40.71-43.56-39.41a1.88,1.88,0,0,0,0,3.75c45.73,1.38,46.13,63.62,45.42,96.63-.42,19.31-.9,39.42-4.82,58.38-3.42,16.52-10.47,35-25.75,44-15.09,8.9-39.89,8.93-53-3.84-.53-.52-1.24.24-.8.79Z"/><path d="M45.92,135.77c19-1.38,37.81-4.82,56.77-6.71a537.38,537.38,0,0,1,58.82-2.59,570.56,570.56,0,0,1,57.84,3.68c9.88,1.11,19.73,2.51,29.53,4.14,9.34,1.55,18.58,3.89,28,4.76,2.4.22,2.4-3.1.52-3.87-9.11-3.7-19-5.45-28.66-7.4-9.44-1.9-18.93-3.44-28.47-4.73A469.46,469.46,0,0,0,161.51,119a492,492,0,0,0-58.82,3c-19.18,2.15-38.95,5.07-57,12-.85.33-.83,1.8.23,1.72Z"/><path d="M108.17,233.83c-10.41,8.64-20.47,17.58-30.38,26.79-9,8.34-17.66,17-26.36,25.62s-18,17.09-25.43,26.64a2.18,2.18,0,0,0,0,3c4,3.76,7.6,8.28,11.26,12.38q9.84,11,19.71,22c13.35,14.81,26.67,29.75,40.5,44.11,2.27,2.35,4.6,4.61,7,6.86.84.79,2.66,2.5,2.73,2.58,1.81,1.95,4.72-1,2.92-2.92-1.39-1.5-4.62-5.8-6.7-8.19-5.64-6.5-11.6-12.71-17.47-19q-21.35-22.85-42.81-45.57c-4.54-4.8-9.83-9.55-13.75-14.88L29,315.9c9-7.86,17.11-17,25.52-25.52,8.8-8.86,17.79-17.54,26.57-26.43q14.22-14.41,28-29.19a.66.66,0,0,0-.93-.93Z"/><path d="M118.94,244.15c-8.81,7.43-17.32,15.1-25.68,23-15.38,14.61-31.39,29.66-44.93,46a2.28,2.28,0,0,0,0,3.15c9.93,9,18.22,20.5,27,30.56,11.6,13.26,23.2,26.63,35.31,39.43,2.66,2.82,5.74,5.31,8.33,8.18,1.79,2,4.69-.95,2.92-2.91.23.26-1-1.33-1.49-1.93-1.43-1.84-2.83-3.71-4.33-5.49-4.81-5.72-9.93-11.17-15-16.69q-18.52-20.28-37.2-40.4c-4-4.33-8.66-8.62-12.1-13.45-.12.9-.24,1.8-.35,2.7,15.63-14.5,30.34-30.45,45.06-45.87,8-8.33,15.7-16.78,23.32-25.42a.65.65,0,0,0-.93-.92Z"/><path d="M189.2,223c-8.36,20.69-15.24,41.82-22.12,63-5.92,18.27-11.17,36.69-17.32,54.9-5.27,15.6-10.33,31.27-15.43,46.93-1.83,5.62-3.76,11.24-5.18,17-.39,1.59-.77,3.18-1.12,4.77-.1.45-.23.89-.31,1.35s-.19.7-.11.46c-.81,2.53,3.17,3.62,4,1.1a11.66,11.66,0,0,0,.51-1.27c.5-1.21,1-2.43,1.49-3.64,1.8-4.43,3.29-9,4.71-13.56,4.68-15,9.47-29.94,14-45,10.26-34.15,22.14-67.76,32.12-102,2.29-7.85,4.17-15.79,6.06-23.74a.66.66,0,0,0-1.27-.35Z"/><path d="M206.63,223.92c-8.25,20.73-15,41.88-21.76,63.14-5.82,18.3-11,36.75-17,55-5.18,15.63-10.15,31.32-15.17,47-1.79,5.63-3.69,11.26-5.08,17-.38,1.58-.74,3.17-1.09,4.76-.09.46-.22.9-.3,1.36s-.19.71-.11.46c-.8,2.54,3.19,3.63,4,1.1a11.57,11.57,0,0,0,.51-1.28c.49-1.21,1-2.42,1.46-3.64,1.78-4.44,3.24-9,4.64-13.58,4.59-15,9.29-30,13.73-45C180.5,316,192.19,282.33,202,248c2.24-7.86,4.07-15.81,5.91-23.78a.65.65,0,0,0-1.26-.34Z"/><path d="M108.56,235.23a28.41,28.41,0,0,0,5.08,5.66c1.25,1.2,3.69,4.62,5.71,4a1.75,1.75,0,0,0,1.23-1.23c.5-2.18-2.9-4.21-4.28-5.46-1.86-1.68-3.74-3.6-6-4.73a1.28,1.28,0,0,0-1.74,1.74Z"/><path d="M110.05,403.81a11.88,11.88,0,0,0,5.51-3.6c1.73-1.83,3.8-3,5.63-4.68,1.44-1.33-.06-4.11-2-3.4-4.52,1.68-7.87,7-9.58,11.26-.1.24.19.49.42.42Z"/><path d="M224.52,234.76q13.8,14.81,28,29.19c8.61,8.72,17.42,17.23,26.06,25.92s16.88,18,26,26l-.33-2.59c-3.28,4.46-7.7,8.48-11.5,12.5C286.07,332.9,279.33,340,272.64,347,259,361.51,245.2,375.91,232,390.77c-2.1,2.36-4.1,4.79-6.09,7.25L223.53,401c-1.8,1.95,1.11,4.87,2.92,2.92,1.37-1.49,5.4-5,7.61-7.28,6.15-6.25,12-12.79,17.91-19.26q21.09-23.06,42-46.32c4.47-5,8.78-10.53,13.7-15.11a2.19,2.19,0,0,0,0-3c-7.33-9.36-16.49-17.77-24.92-26.13-8.87-8.79-17.72-17.62-26.87-26.13-9.91-9.21-20-18.15-30.38-26.79a.66.66,0,0,0-.93.93Z"/><path d="M213.75,245.07q11.43,13,23.32,25.42c14.72,15.42,29.43,31.37,45.06,45.87-.11-.9-.23-1.8-.35-2.7-2.89,4.06-6.75,7.69-10.14,11.34-5.78,6.23-11.6,12.43-17.38,18.67-11.85,12.79-23.84,25.56-35.23,38.77-1.83,2.12-3.56,4.29-5.27,6.5l-1.53,2c-.25.32-1,1.18-.54.7-1.77,2,1.13,4.89,2.92,2.91,2.08-2.3,4.58-4.26,6.74-6.49,5.31-5.49,10.31-11.27,15.4-17q18.41-20.65,36.6-41.48c3.85-4.42,7.59-9.3,11.94-13.24a2.28,2.28,0,0,0,0-3.15c-13.54-16.36-29.55-31.41-44.93-46-8.36-7.94-16.87-15.61-25.68-23a.65.65,0,0,0-.93.92Z"/><path d="M223.32,233.49c-2.26,1.13-4.14,3-6,4.73-1.38,1.25-4.77,3.28-4.28,5.46a1.75,1.75,0,0,0,1.23,1.23c2,.6,4.46-2.82,5.71-4a28.41,28.41,0,0,0,5.08-5.66,1.28,1.28,0,0,0-1.74-1.74Z"/><path d="M224,403.39c-1.71-4.26-5.06-9.58-9.58-11.26-1.91-.71-3.43,2.07-2,3.4,1.83,1.66,3.9,2.85,5.63,4.68a11.88,11.88,0,0,0,5.51,3.6c.23.07.52-.18.42-.42Z"/><path d="M189.38,223.65c1.79,1.7,4.68,1.8,7,2.15a81.83,81.83,0,0,0,9.23,1c2.37.07,3-3.86.57-4.23-3-.46-6-.63-9-.81-2.45-.14-5.57-.66-7.7.73a.76.76,0,0,0-.16,1.18Z"/><path d="M129.07,414.05c5.88,1.61,12.26.92,18.31.9,3.18,0,3.18-5,0-4.93-6,.18-12.52-.3-18.31,1.62a1.26,1.26,0,0,0,0,2.41Z"/></g></g></svg>