<?xml version="1.0" encoding="UTF-8"?>
<svg viewBox="0 0 16 16" version="1.1" xmlns="http://www.w3.org/2000/svg" xmlns:xlink="http://www.w3.org/1999/xlink">
    <title>twitter</title>
    <g id="twitter" stroke="none" stroke-width="1" fill="none" fill-rule="evenodd">
        <g>
            <rect id="Rectangle" fill="#D8D8D8" opacity="0" x="0" y="0" width="16" height="16"></rect>
            <path d="M13.560966,4.99061324 C13.5698911,5.12186165 13.5698911,5.25312854 13.5698911,5.38437695 C13.5698911,9.38751356 10.6828105,14 5.40611629,14 C3.78046988,14 2.27031544,13.5030974 1,12.6406052 C1.23097519,12.6687701 1.45303408,12.6780968 1.69289933,12.6780968 C3.03424771,12.6780968 4.26904668,12.2000323 5.25509909,11.3843585 C3.99366496,11.3562859 2.93655335,10.4843746 2.57233233,9.2843654 C2.75001094,9.3125303 2.9276633,9.33127612 3.11423196,9.33127612 C3.37184232,9.33127612 3.62947018,9.29369214 3.86930918,9.22812796 C2.55458722,8.94684838 1.56850855,7.72809333 1.56850855,6.2562513 L1.56850855,6.21875967 C1.95047469,6.44376486 2.39467997,6.58438618 2.86545916,6.60311353 C2.09261058,6.05935559 1.58627991,5.13123456 1.58627991,4.08122879 C1.58627991,3.51874351 1.72838955,3.00311353 1.97713611,2.55311237 C3.38958743,4.39060862 5.5127007,5.59059015 7.89340683,5.72186627 C7.84900031,5.49686108 7.82233889,5.26251068 7.82233889,5.02813258 C7.82233889,3.3593579 9.10150063,2 10.6916481,2 C11.5178282,2 12.2639454,2.36562652 12.7880737,2.95624899 C13.4365402,2.82500981 14.0584066,2.57186742 14.6092226,2.22500519 C14.3959837,2.9281395 13.9429059,3.51877121 13.3477272,3.89374293 C13.9251433,3.82815104 14.4847968,3.65936483 15,3.42501443 C14.6092226,4.02499134 14.1206195,4.55933943 13.560966,4.99061324 Z" id="Path" fill="currentColor" fill-rule="nonzero"></path>
        </g>
    </g>
</svg>