<svg xmlns="http://www.w3.org/2000/svg" viewBox="0 0 513.12 437.72"><g id="Layer_2" dataName="Layer 2"><g id="Icon"><path d="M161.52,74.74c-.57,8-1.21,16-1.49,24,0,.91,1.3.87,1.39,0a187.15,187.15,0,0,0,1-24,.43.43,0,0,0-.85,0Z"/><path d="M146.72,77.23a133.67,133.67,0,0,0,.76,16.85c.08.74,1.2.78,1.19,0a135.38,135.38,0,0,0-1.35-16.94c-.06-.34-.6-.25-.6.09Z"/><path d="M132,73.64c-.14,7.81-.81,15.68-.79,23.48,0,.71,1.17.92,1.27.17,1.09-7.68.73-15.94.07-23.65a.28.28,0,0,0-.55,0Z"/><path d="M110.42,74.92a140.48,140.48,0,0,0-1.73,14.46c-.07.9,1.27.85,1.37,0A140.91,140.91,0,0,0,111.14,75c0-.41-.65-.52-.72-.1Z"/><path d="M94.46,77.23c-.17,4.22-.79,8.48-.79,12.7,0,.56.92.73,1,.14.69-4.18.48-8.62.42-12.84a.32.32,0,0,0-.64,0Z"/><path d="M74.88,78.72a17,17,0,0,0,4.27,0,.45.45,0,0,0,0-.87,16.51,16.51,0,0,0-4.27,0,.39.39,0,0,0,0,.77Z"/><path d="M201.13,75.3c0,16.39.16,32.78.36,49.17a.81.81,0,0,0,1.61,0c-.2-16.4-.4-32.78-.83-49.17a.57.57,0,0,0-1.14,0Z"/><path d="M194.84,85.41c-1.22,12.47,0,25.5.08,38a.48.48,0,0,0,1,0c-.06-12.51,1-25.54-.32-38a.36.36,0,0,0-.71,0Z"/><path d="M320.93,168.42A32.88,32.88,0,0,0,315,153.65c-.4-.53-1.19.15-.89.69,2.55,4.67,4.72,9.1,5.8,14.36.14.67,1.12.37,1-.28Z"/><path d="M326.66,169.56c-.94-5.41-3.15-11.64-7.18-15.56a.57.57,0,0,0-.89.69c3.09,5,5.86,9.29,7.11,15.14.13.63,1.07.36,1-.27Z"/><path d="M339.4,146.3a60.71,60.71,0,0,0-17.33-12.71.63.63,0,0,0-.63,1.08,127,127,0,0,1,17.36,12.22c.41.35,1-.2.6-.59Z"/><path d="M406.67,148.4a46,46,0,0,1,12.74-18c.55-.49-.18-1.47-.79-1a34.88,34.88,0,0,0-12.76,18.78c-.15.54.62.72.81.23Z"/><path d="M348.77,174.91c-.22,2.09,0,5.63,1.75,7.14a7.73,7.73,0,0,0,3.16,1.19,47.63,47.63,0,0,0,5.26,1.33.52.52,0,0,0,.28-1c-2.24-.83-4.83-.9-7-1.81-2.56-1.08-2.69-4.49-3.1-6.88,0-.21-.32-.13-.34,0Z"/><path d="M471.33,348.18a15,15,0,0,1,5.66,5.18c1.36,2.15,1.79,4.32,2.43,6.71a.61.61,0,0,0,1.2-.16c.15-5.35-4.26-10.36-8.81-12.57-.55-.27-1,.54-.48.84Z"/><path d="M326.44,357.2c-3.89.9-8.51,4.88-8.63,9.16a.45.45,0,0,0,.83.22c.95-1.91,1.49-3.76,2.92-5.42a14.06,14.06,0,0,1,5.05-3.56c.23-.11.06-.46-.17-.4Z"/><path d="M465.59,408.42c.24,8.19.22,16.31.12,24.5,0,.62.88.59.94,0a105.69,105.69,0,0,0-.45-24.5c-.05-.38-.62-.41-.61,0Z"/><path d="M447.19,411.41a172.38,172.38,0,0,1-.14,22.5c0,.56.81.54.86,0a103.84,103.84,0,0,0-.19-22.5c0-.33-.56-.34-.53,0Z"/><path d="M412.28,412.41c-.19,7.65-.43,15.35-.18,23a.4.4,0,0,0,.8,0c.24-7.65,0-15.35-.18-23a.22.22,0,0,0-.44,0Z"/><path d="M392.83,412.41c-.06,6.33-.25,12.67-.06,19a.23.23,0,0,0,.45,0c.19-6.33,0-12.67-.06-19a.17.17,0,0,0-.33,0Z"/><path d="M357,408.91c.11,8.47-.17,17.06.48,25.5a.5.5,0,0,0,1,0c.27-8.46-.41-17-.69-25.5a.39.39,0,0,0-.78,0Z"/><path d="M336.74,410.91a159,159,0,0,0,.28,18,.51.51,0,0,0,1,0,156.74,156.74,0,0,0-.69-18,.31.31,0,0,0-.61,0Z"/><path d="M313.65,404.91c0,8-.21,16.06.4,24a.5.5,0,0,0,1,0c.22-8-.42-16-.79-24a.31.31,0,0,0-.61,0Z"/><path d="M362.79,416.41a129.87,129.87,0,0,0,.31,14.5.48.48,0,0,0,1,0,130.21,130.21,0,0,0-.8-14.5.24.24,0,0,0-.47,0Z"/><path d="M418.32,417.87a25,25,0,0,0,.07,6.29c.13,2.14.18,4.29.49,6.4.09.62,1.08.46,1.08-.14,0-2.25-.31-4.5-.52-6.74a23.08,23.08,0,0,0-.82-5.81c-.05-.13-.27-.16-.3,0Z"/><path d="M471.52,416.91a144.26,144.26,0,0,0,.38,15,.54.54,0,0,0,1.07,0,141.86,141.86,0,0,0-.62-15,.42.42,0,0,0-.83,0Z"/><path d="M489.28,98.85c-5.55,18.9-30.43,18.92-46.28,19.41a.65.65,0,0,0,0,1.3c16.27.22,41.82-1,46.95-20.53a.35.35,0,0,0-.67-.18Z"/><path d="M464,111.22c-7.36,2.63-15.88,2.07-23.6,2.29-8,.24-15.95.15-23.91.53a.59.59,0,0,0,0,1.17c8.59.15,17.24-.19,25.82-.52,7.24-.28,15.07,0,21.93-2.6.54-.2.32-1.07-.24-.87Z"/><path d="M264.85,71a117.55,117.55,0,0,0-1.05,17.38.49.49,0,0,0,1,0A118.67,118.67,0,0,0,265.33,71a.24.24,0,0,0-.48,0Z"/><path d="M289.84,74.36c-.25,6.15-.63,12.36-.43,18.51a.33.33,0,0,0,.66,0c.42-6.14.26-12.36.22-18.51a.23.23,0,0,0-.45,0Z"/><path d="M221,94c-.06,12.29.15,24.76.86,37a.6.6,0,0,0,1.2,0c-.11-12.3-.73-24.76-1.62-37a.22.22,0,0,0-.44,0Z"/><path d="M229.11,109.87c-.21,7.43-.27,14.87,0,22.29a.62.62,0,0,0,1.24,0c-.25-7.43-.39-14.85-.3-22.29a.46.46,0,0,0-.91,0Z"/><path d="M241.05,116.67a103.62,103.62,0,0,1,.4,12.46c0,.69,1.07.7,1.08,0a51.11,51.11,0,0,0-1.08-12.52.2.2,0,0,0-.4.06Z"/><path d="M398.27,142.57q2.57-3.47,5.09-6.95c.34-.46-.44-.91-.77-.45-1.65,2.34-3.27,4.7-4.89,7.07-.24.35.32.66.57.33Z"/><path d="M219.93,29.67c6.06,1.65,13.41.6,19.66.44,7.11-.19,14.31,0,21.41-.47a1.23,1.23,0,0,0,0-2.46c-7.08-.44-14.33.26-21.41.6-6.33.3-13.57-.33-19.66,1.37a.27.27,0,0,0,0,.52Z"/><path d="M184,39a110.61,110.61,0,0,0,27,.11c1.74-.23,1.84-3,0-2.82-9,.66-18,1.27-27,1.36-.88,0-.83,1.25,0,1.35Z"/><path d="M276.59,27.22l16.34-7.36c2.12-.95,4.42-2.47,6.66-3.08-1.07.29.51.1,1.05.13,11,.62,22.2.22,33.23.32,39,.33,77.94.68,116.91,1.49,11,.23,25.67-1.93,34.08,6.15,5.93,5.69,5.28,15,5.92,22.56.13,1.59,2.63,1.61,2.5,0-.49-5.82.08-12.46-2.06-18-1.81-4.67-5.77-8.3-10.15-10.61-5-2.61-10.63-2.32-16.1-2.46-19-.49-37.92-.75-56.88-1C373,15,338,14.61,302.88,14.53a13.4,13.4,0,0,0-7.46,1.64c-6.55,3.21-13,6.56-19.54,9.84-.82.41-.1,1.58.71,1.21Z"/><path d="M377.83,196.36c.27,8.38,2.89,17.07,4.34,25.32q2.46,14,4.44,28c2.64,18.82,4.92,37.79,6,56.77.14,2.46,4,2.42,3.81,0-1.73-18.62-3.6-37.18-6.55-55.66q-2.22-14-5-27.83c-1.73-8.77-2.87-18.54-6.36-26.79-.15-.36-.74-.17-.73.2Z"/><path d="M328,61.38c16.37.45,33,1.36,49.41.8a1.77,1.77,0,0,0,0-3.54c-16.37-.56-33,.35-49.41.8a1,1,0,0,0,0,1.94Z"/><path d="M327.07,71.53c16.41.46,33.12,1.37,49.53.8a1.77,1.77,0,0,0,0-3.53c-16.41-.57-33.12.34-49.53.8a1,1,0,0,0,0,1.93Z"/><path d="M396.46,238.37c9.39.45,19,1,28.37.8a1.77,1.77,0,0,0,0-3.53c-9.4-.25-19,.34-28.37.79a1,1,0,0,0,0,1.94Z"/><path d="M398.69,252.53c9.06.45,18.31,1,27.38.79a1.77,1.77,0,0,0,0-3.53c-9.07-.23-18.31.35-27.38.8a1,1,0,0,0,0,1.94Z"/><path d="M400.93,267c9.06.45,18.3,1,27.37.79a1.77,1.77,0,0,0,0-3.53c-9.07-.23-18.31.35-27.37.8a1,1,0,0,0,0,1.94Z"/><path d="M403.16,280.77c8.73.46,17.64,1,26.37.8a1.77,1.77,0,0,0,0-3.53c-8.73-.22-17.64.34-26.37.8a1,1,0,0,0,0,1.93Z"/><path d="M414.28,183.27c-2.39-9.4-4.92-18.49-2.62-28.24,2-8.66,7.19-15.06,14.66-19.72,1.55-1,.2-3-1.39-2.37-19,8-20.75,35-12,50.91a.75.75,0,0,0,1.37-.58Z"/><path d="M344.59,160.21c-3.51-8.69-11.77-15.84-19.84-20.24-7.72-4.21-19.44-8.27-28.19-5.29a1.56,1.56,0,0,0,.41,3c4.42.55,8.84.09,13.27.92a49,49,0,0,1,13.41,4.68c8.34,4.3,14,10.49,20.11,17.38.31.35,1,0,.83-.49Z"/><path d="M352.25,355.34a77.47,77.47,0,0,0,9.27-2.85c5.65-1.86,11.84-3.49,16.7-7.07,8.56-6.28,9.37-19,7-28.53-.52-2.14-3.8-1.66-3.8.52,0,5.15,1.08,10.14,0,15.29-1.26,6.13-5.12,9.63-10.54,12.3-6.35,3.13-13.14,5.36-19.43,8.57-1,.53-.28,2,.74,1.77Z"/><path d="M332.38,399.41c-.83,7.21-.65,14.62-.88,21.87-.12,3.94-.73,8.19-.25,12.12.19,1.54,2.75,2.3,3,.41.6-3.86.16-8,.13-11.9-.07-7.44.23-15.1-.7-22.5a.67.67,0,0,0-1.34,0Z"/><path d="M351.38,399.41c-.83,7.21-.65,14.62-.88,21.87-.12,3.94-.73,8.19-.25,12.12.19,1.54,2.75,2.3,3,.41.6-3.86.16-8,.13-11.9-.07-7.44.23-15.1-.7-22.5a.67.67,0,0,0-1.34,0Z"/><path d="M387.38,399.41c-.83,7.21-.65,14.62-.88,21.87-.12,3.94-.73,8.19-.25,12.12.19,1.54,2.75,2.3,3,.41.6-3.86.16-8,.13-11.9-.07-7.44.23-15.1-.7-22.5a.67.67,0,0,0-1.34,0Z"/><path d="M406.38,399.41c-.83,7.21-.65,14.62-.88,21.87-.12,3.94-.73,8.19-.25,12.12.19,1.54,2.75,2.3,3,.41.6-3.86.16-8,.13-11.9-.07-7.44.23-15.1-.7-22.5a.67.67,0,0,0-1.34,0Z"/><path d="M442.38,399.41c-.83,7.21-.65,14.62-.88,21.87-.12,3.94-.73,8.19-.25,12.12.19,1.54,2.75,2.3,3,.41.6-3.86.16-8,.13-11.9-.07-7.44.23-15.1-.7-22.5a.67.67,0,0,0-1.34,0Z"/><path d="M461.38,399.41c-.83,7.21-.65,14.62-.88,21.87-.12,3.94-.73,8.19-.25,12.12.19,1.54,2.75,2.3,3,.41.6-3.86.16-8,.13-11.9-.07-7.44.23-15.1-.7-22.5a.67.67,0,0,0-1.34,0Z"/><path d="M333.21,399.44c1.25-5.3,3.93-10.2,10.12-10.32,5.48-.11,7.64,5.75,8,10.29a.72.72,0,0,0,1.44,0c.55-5.52-2.91-12.16-8.94-12.69-7.5-.66-11.78,5.8-11.35,12.62,0,.4.63.53.73.1Z"/><path d="M388.21,399.44c1.25-5.3,3.93-10.2,10.12-10.32,5.48-.11,7.64,5.75,8,10.29a.72.72,0,0,0,1.44,0c.55-5.52-2.91-12.16-8.94-12.69-7.5-.66-11.78,5.8-11.35,12.62,0,.4.63.53.73.1Z"/><path d="M443.21,399.44c1.25-5.3,3.93-10.2,10.12-10.32,5.48-.11,7.64,5.75,8,10.29a.72.72,0,0,0,1.44,0c.55-5.52-2.91-12.16-8.94-12.69-7.5-.66-11.78,5.8-11.35,12.62,0,.4.63.53.73.1Z"/><path d="M342.65,391.45c-4.5-.09-7.91,5.54-6.73,9.67.16.58,1.15.83,1.42.18.54-1.26.64-2.72,1.05-4,.79-2.51,2.74-3.4,4.6-5a.49.49,0,0,0-.34-.83Z"/><path d="M398.65,391.45c-4.5-.09-7.91,5.54-6.73,9.67.16.58,1.15.83,1.42.18.54-1.26.64-2.72,1.05-4,.79-2.51,2.74-3.4,4.6-5a.49.49,0,0,0-.34-.83Z"/><path d="M452.65,391.45c-4.5-.09-7.91,5.54-6.73,9.67.16.58,1.15.83,1.42.18.54-1.26.64-2.72,1.05-4,.79-2.51,2.74-3.4,4.6-5a.49.49,0,0,0-.34-.83Z"/><path d="M209.29,17.46c-1.31,12.82-1,25.89-1.21,38.75-.34,20.26-.47,40.51-.63,60.77,0,4.79-.15,9.58-.11,14.37,0,5.39,8.42,5.4,8.38,0-.26-33.13-1.14-66.42-2.79-99.51-.24-4.8-.39-9.6-1-14.38a1.35,1.35,0,0,0-2.69,0Z"/><path d="M269.26,17.15c-5-1-10.38-.84-15.45-1.06-6.28-.28-12.56-.66-18.85-.74-5.25-.07-10.5-.17-15.75-.22-1.53,0-3.06-.07-4.59,0-.7,0-4.44.15-2,.14-5.23,0-5.24,8.15,0,8.13-2.43,0,1.31.12,2,.13,1.53,0,3.06-.05,4.59-.09,5.25-.1,10.5-.28,15.75-.44,6.29-.2,12.57-.72,18.85-1.18,5.06-.37,10.52-.41,15.45-1.68,1.4-.37,1.51-2.66,0-3Z"/><path d="M175.57,27.2C174.25,38,174.5,49,174.24,59.78c-.42,17.55-.63,35.1-.86,52.65,0,4.06-.18,8.12-.16,12.18,0,5.39,8.4,5.4,8.37,0-.14-28.37-.9-56.91-2.44-85.23-.22-4.07-.35-8.13-.89-12.18a1.35,1.35,0,0,0-2.69,0Z"/><path d="M210.06,26.72c-6-1.75-13.28-1.74-19.47-1.91-3.43-.09-9.78-1.47-12.89.46a4.11,4.11,0,0,0,0,7c3.16,1.9,9.45.42,12.89.23,6.13-.34,13.71-.58,19.47-2.84a1.55,1.55,0,0,0,0-3Z"/><path d="M210.06,122.63c-6.08-1.82-13.64-1.73-20-1.9-3.61-.1-10.08-1.52-13.4.45a4.11,4.11,0,0,0,0,7c3.38,2,9.75.41,13.4.22,6.23-.33,14.11-.5,20-2.83a1.55,1.55,0,0,0,0-3Z"/><path d="M124.57,53.82c-1.92,6.71-1.42,14.7-1.69,21.62-.29,7.37-.72,14.85-.61,22.24.07,5.38,8.44,5.4,8.37,0-.1-7.4-.72-14.87-1.22-22.24-.46-6.92-.16-14.95-2.26-21.62a1.35,1.35,0,0,0-2.59,0Z"/><path d="M167,53.82c-2,6.22-1.69,13.88-2.1,20.34-.44,7-1,14-1,21,0,5.39,8.34,5.39,8.37,0,.05-7-.43-14-.78-21-.33-6.46.11-14.1-1.85-20.34a1.36,1.36,0,0,0-2.59,0Z"/><path d="M168.81,53.15c-3.33-1-7.38-1-10.84-1.23-4.64-.34-9.28-.78-13.93-.9-3.75-.1-7.5-.22-11.25-.29-1.73,0-4.17-.45-5.81.24-3.82,1.59-3.85,6.24,0,7.83,1.56.65,3.79.26,5.43.22,3.88-.09,7.75-.25,11.63-.38,4.46-.16,8.9-.62,13.35-1,3.62-.33,8-.3,11.42-1.52a1.54,1.54,0,0,0,0-3Z"/><path d="M169.66,96c-3.4-1-7.46-1-11-1.22-4.73-.34-9.46-.79-14.21-.91-4-.1-7.94-.23-11.92-.29-1.67,0-4-.41-5.56.24-3.82,1.56-3.85,6.28,0,7.83,1.6.65,3.88.26,5.56.22,4-.09,8-.24,11.92-.38,4.75-.16,9.48-.66,14.21-1.08,3.51-.31,7.63-.33,11-1.46a1.54,1.54,0,0,0,0-3Z"/><path d="M178.29,66.41c-1.47-2.4-4.38-2.87-6.94-3.18s-4.44,2.55-4.14,4.78a4,4,0,0,0,1.58,2.75,4.46,4.46,0,0,0,3.68.75A8.52,8.52,0,0,0,176,70.44c1.2-.79,3.28-2.33,2.25-4Z"/><path d="M178.29,84c-1.47-2.4-4.38-2.87-6.94-3.19s-4.44,2.56-4.14,4.78a4,4,0,0,0,1.58,2.75,4.43,4.43,0,0,0,3.68.76A8.67,8.67,0,0,0,176,88c1.2-.8,3.28-2.34,2.25-4Z"/><path d="M79.19,70c-1.21,3.73-1.11,7.83-1.28,11.71-.25,6,9.87,5,8.23-1.11-1-3.73-1.81-7.66-3.8-11a1.74,1.74,0,0,0-3.15.41Z"/><path d="M115.93,61.46c-1.94,3.85-1.73,9.47-2.12,13.67-.47,5-.72,10-1.07,15-.37,5.38,8.69,5.41,8.38,0-.29-5-.48-10-.9-15-.34-4.21-.07-9.8-2-13.67a1.35,1.35,0,0,0-2.32,0Z"/><path d="M117.6,60.94c-4.83-1.88-11.32-2-16.45-2.23-2.81-.14-9.12-1.53-11.61.36s-2.59,5.05,0,7,9.27.45,12.2.27c5.12-.32,11.47-.59,16.23-2.62,1.35-.58.7-2.38-.37-2.8Z"/><path d="M91.19,93.25C95.94,95.11,102.43,95,107.45,95c3.16,0,8.64.93,11.15-1.48,2.06-2,1.21-4.88-.82-6.38-2.53-1.88-8.68-.08-11.46.22-5,.55-10.89,1.1-15.5,3.13-1.34.59-.71,2.38.37,2.8Z"/><path d="M124.9,69.25a6.38,6.38,0,0,0-4.71-2.77,4.22,4.22,0,1,0,0,8.14,11,11,0,0,0,2.39-.71c1.64-.69,3.34-2.87,2.32-4.66Z"/><path d="M124.9,80.39a6.38,6.38,0,0,0-4.71-2.77,4.22,4.22,0,1,0,0,8.14,11,11,0,0,0,2.39-.71c1.64-.7,3.34-2.87,2.32-4.66Z"/><path d="M296.54,8.47c41.44.81,82.88,2.27,124.33,2.74C438,11.4,456.09,10.16,473,13c5.63,1,12.28,2.07,16.9,5.7,5,3.92,8.25,10,9.57,16.11,1.46,6.73,1.25,13.77,1.57,20.62.4,8.45.16,16.86-.14,25.31-.46,13.42,1.17,27.5-11.07,36.2-7.38,5.24-18.29,7.36-27.21,8.27-13.84,1.43-27.94,1-41.83.9-17.54-.13-35.09-.61-52.63-.57-23.77.06-47.53.32-71.3.52-27.57.22-55.21-.13-82.76.67h-1.5c-7,0-7,10.91,0,10.87,25.1-.13,50.19-.12,75.29-.18,26.69-.06,53.38-.24,80.07-.25,30.73,0,61.91,2.58,92.58.05a95.81,95.81,0,0,0,28.69-6.47c13.4-5.57,21.14-17.07,22.67-31.15,1.74-16,1.25-32.61.65-48.68-.55-14.47-2.09-28.09-12.78-38.88-9.55-9.64-25.29-11-38.11-11.8C454.06-.21,446.44.1,438.8.12c-43.94.15-87.85,1-131.75,3.2q-5.26.27-10.51.71c-2.81.24-2.9,4.39,0,4.44Z"/><path d="M268.51,19.6a114.53,114.53,0,0,0,14.82-5.06c4.46-1.75,10.32-3,14.26-5.84a2.51,2.51,0,0,0-1.93-4.57c-4.74,1-9.65,4.41-14,6.5a115.64,115.64,0,0,0-13.81,7.48.82.82,0,0,0,.63,1.49Z"/><path d="M94.47,90.65c-.55-2.43-3.36-4.55-5-6.34-2.19-2.45-5-5.84-8.64-4.66-1.53.48-3.13,2.09-2.94,3.85.27,2.47,1.38,3.69,3.33,5,1.25.87,2.58,1.69,3.89,2.48,2.28,1.39,5.83,3.39,8.45,1.74a2,2,0,0,0,.86-2.12Z"/><path d="M81.68,72.26a57.24,57.24,0,0,0,6.64-3.77c2.17-1.29,5.24-2.66,6.27-5s-.68-5.66-3.63-4.73c-2.67.84-4.46,3.45-6.44,5.35A25.81,25.81,0,0,0,79.41,70a1.68,1.68,0,0,0,2.27,2.27Z"/><path d="M99.91,57.3c-.48,6.06-.38,12.14-.86,18.2-.47,5.88-2.33,12.31-1.72,18.15.41,3.83,5.9,5.11,7.06.95,1.67-5.94.67-13,.47-19.1a149.74,149.74,0,0,0-1.33-18.69c-.35-2.17-3.47-1.44-3.62.49Z"/><path d="M139.13,49.73c-1.95,8-1.51,16.91-1.83,25.09-.34,8.81-1.54,18-.92,26.76a4,4,0,0,0,8,0c.89-8.73-.5-18-1-26.76-.51-8.23-.2-17-1.91-25.09a1.2,1.2,0,0,0-2.29,0Z"/><path d="M154.41,103.17c1.27-8.5,1.51-17,1.77-25.62l.51-17.34c.06-2,.21-4,.14-5.93a10.45,10.45,0,0,0-.11-1.86c-.32-1.64-.17-3.1-.16-.1,0-4.86-7.58-4.87-7.56,0,0-.38.42-3.55-.08-.43a21.18,21.18,0,0,0-.18,2.39c0,1.85.11,3.71.17,5.56l.66,17.71c.31,8.59.61,17.12,1.94,25.62.23,1.43,2.68,1.44,2.9,0Z"/><path d="M451.93,130.54c-13,2.2-26.65,7.33-32.38,20.26-6.58,14.83-.14,31.46,3.86,46.08,6.34,23.17,12.14,46.25,15.32,70.09,1.94,14.51,3.35,29.08,4.9,43.62.48,4.48.59,9.14,2.75,13.2,2.81,5.28,8.18,8.93,13.22,11.84,7.87,4.55,20.21,6.95,24.64,15.7,2.59,5.12,1.79,11.73,1.76,17.32-.08,15.93.33,31.88.17,47.81-.07,6.39,9.87,6.4,9.94,0,.13-13.44.82-26.88,1-40.31.08-5.3.27-10.62.25-15.92-.05-10.51-4.26-19.1-13-25-8.17-5.46-21.11-7.58-27.05-15.89-2.26-3.16-1.9-7.86-2.3-11.58q-1.23-11.58-2.59-23.14c-2.64-22.5-6.1-44.76-11.77-66.72q-2.79-10.86-6-21.63c-2.51-8.43-5.6-16.83-7.16-25.5-1.52-8.39-1.16-17.09,4.7-23.8,5.34-6.11,13.32-9.72,21-11.65,3.17-.8,1.78-5.35-1.33-4.82Z"/><path d="M276.19,134.57c2.75,3.57,6.22,6.53,9.15,10,2.76,3.22,6.24,7.15,10.6,7.65,10.81,1.22,21.09,2,29.92,9.29,5.8,4.8,9.19,11.48,10.69,18.79.92,4.44.48,7.93,4.19,11.09,2.9,2.47,6.65,3.63,10.26,4.62,4.07,1.13,8.79,1.89,11.21,5.75s2.88,9.8,3.83,14.29c1.52,7.12,3,14.27,4.19,21.45,3.09,18.33,4.31,37,7.63,55.24.78,4.29,8.08,3.36,7.68-1-1.59-17.28-4.13-34.71-6.83-51.87-1.09-7-2.42-13.95-3.87-20.89-1.75-8.45-2.35-20-9.71-25.73-3.18-2.47-7-3.51-10.85-4.47s-8.94-1.47-9.49-6.16c-.93-7.89-3.47-15.5-8.33-21.85-8-10.4-20.49-15.2-33.16-16.64-1.36-.16-6.22-1.23-7.36-.37.56-.41,1.83,1.39.35-.16a18.5,18.5,0,0,0-3.23-2.44c-3.11-2-6.66-3.3-9.81-5.25a42.46,42.46,0,0,0-5.35-3c-1-.43-2.57.59-1.71,1.71Z"/><path d="M309.39,417.16c.51-9.82,1.3-19.64,1.65-29.46.2-5.55.33-11.1.48-16.65.12-4.54.16-8.95,3.67-12.38,5-4.91,12.91-6.39,19.57-7.82,8.76-1.9,17.47-3.94,26-6.62,5.14-1.61,10.2-3.44,15.16-5.54,4.72-2,9.33-3.73,10.64-9.22.85-3.57.63-7.87.59-11.56-.05-5.1-.47-10.19-.9-15.27-.93-11-.89-23.09-3.71-33.76-1.13-4.25-7.19-3.16-7.43,1-.58,10.06,1.66,20.72,2.53,30.78.44,5,.88,10.08,1,15.14.09,2.94.07,5.89-.1,8.83-.18,3.23-.72,3.82-3.58,5.3a67.51,67.51,0,0,1-7.63,3.13c-5.27,2-10.63,3.63-16,5.14-7.42,2.07-14.93,3.65-22.41,5.45-7.09,1.71-15.14,4.45-20.19,10-7,7.7-5.19,19.67-5.2,29.28,0,11.41.53,22.81.78,34.22.07,3.27,4.89,3.24,5.06,0Z"/><path d="M491.12,385.88c-.59,6.2-1.47,12.41-1.87,18.63-.45,6.92,1,17.23-5.66,21.58-5.15,3.39-11.3,2.56-18,2.69-9.6.18-19.19.21-28.79.25q-7.65,0-15.29.08c-3.91,0-8.27-.38-12.05.76-3.44,1-3.76,6.42,0,7.29,3.59.83,7.43.43,11.08.4,5-.05,10.06-.07,15.09-.09,10.31,0,20.61,0,30.91-.28,7.15-.16,14.36.06,20.72-3.71,9.71-5.75,9.4-16.79,9.51-26.76.08-7-.37-13.9-.55-20.84-.08-3.31-4.76-3.2-5.06,0Z"/><path d="M304.33,385.88c-.12,9.25-.66,18.54-.33,27.79.22,6.43,1.18,13,6.23,17.52a22.22,22.22,0,0,0,12.91,5.39c22.69,1.91,45.88.83,68.63.9q9.56,0,19.1.08c4.31,0,8.66.33,12.92-.4,3.74-.65,3.47-6.46,0-7.29-7.83-1.88-16.94-.77-24.93-.8-12.58-.05-25.16-.07-37.74-.13-10.62-.06-21.25,0-31.88-.3-1.63,0-3.27-.08-4.9-.17-.58,0-3.54-.44-2-.11-6.46-1.4-9.61-5.5-10.43-11.81-1.31-10.1-1.68-20.52-2.51-30.67-.26-3.21-5-3.31-5.06,0Z"/><path d="M306.23,374.42c15.42,1.58,31.08,1.32,46.57,1.35s31,0,46.56-.11c31-.18,62.08-.61,93.13-1,5.58-.07,5.6-8.76,0-8.69-31.05.39-62.09.73-93.13,1.33q-22.78.43-45.57,1c-15.83.43-31.84.53-47.56,2.54a1.78,1.78,0,0,0,0,3.56Z"/><path d="M80.35,73.5A92,92,0,0,0,64.54,72c-11.4-.46-22.81-.57-34.22-.76L13.83,71C10,70.92,4,70.11,1.2,73.57c-2.47,3.12-.88,7.22,2.52,8.73,5.7,2.52,14.19,1.06,20.2,1.1,18.42.13,36.8-.65,55.21-.84a1.16,1.16,0,0,0,0-2.31c-17.17-.5-34.32-1.67-51.51-1.89L14.48,78.2c-1.86,0-4.49.41-6.31-.14-2.61-.8-2-1.32,0-1.85,2.34-.63,5.59,0,8,0h9.47c12.21,0,24.44.24,36.65,0,6-.1,12.08,0,18-1.16a.81.81,0,0,0,0-1.56Z"/><path d="M75.44,69.09a72,72,0,0,0-5.67,7.24c-1.73,2.42-4.25,4.89-5.07,7.76a1.79,1.79,0,0,0,2.61,2c2.41-1.62,3.64-4.52,5.07-7,1.65-2.85,3.33-5.69,4.92-8.58.64-1.15-.92-2.45-1.86-1.44Z"/><path d="M65.78,69.39c-3.62,4.6-8,9.11-10.93,14.19-.87,1.55,1.34,3.44,2.56,2C61.17,81,63.86,75.31,66.9,70.26c.41-.68-.61-1.52-1.12-.87Z"/><path d="M55.45,69.09a73.45,73.45,0,0,0-5.67,7.24c-1.73,2.42-4.25,4.89-5.07,7.76a1.8,1.8,0,0,0,2.62,2c2.4-1.62,3.64-4.52,5.06-7,1.65-2.85,3.33-5.69,4.93-8.58.63-1.15-.92-2.45-1.87-1.44Z"/><path d="M45.79,69.39a41,41,0,0,0-5.49,6.35c-1.91,2.63-4,5-6.09,7.51a1.63,1.63,0,0,0,2.3,2.3c4.57-4,6.36-10.54,10.3-15.14a.72.72,0,0,0-1-1Z"/><path d="M35.46,69.09a71.88,71.88,0,0,0-5.66,7.24c-1.74,2.42-4.25,4.89-5.07,7.76a1.79,1.79,0,0,0,2.61,2c2.4-1.62,3.64-4.52,5.07-7,1.65-2.85,3.32-5.69,4.92-8.58.64-1.15-.92-2.45-1.87-1.44Z"/><path d="M26.71,69.39a64.15,64.15,0,0,0-6.31,6.87c-2,2.41-4.2,4.6-6.17,7a1.62,1.62,0,0,0,2.29,2.3c4.69-4.06,7.16-10.47,11.21-15.14a.72.72,0,0,0-1-1Z"/><path d="M16.72,69.39a64.15,64.15,0,0,0-6.31,6.87c-2,2.41-4.2,4.6-6.18,7a1.63,1.63,0,0,0,2.3,2.3c4.68-4.06,7.15-10.47,11.2-15.14a.72.72,0,0,0-1-1Z"/><path d="M285.86,54.3c.91-2,.8-6.79,2.32-7.9a7.9,7.9,0,0,1,3.36-.3,18.49,18.49,0,0,0,0,2.26c0,1,0,2,0,3,0,5.82-.48,12.07.39,17.83.52,3.47,6.57,3.52,7.05,0,.52-3.86.16-7.92.14-11.81,0-4.27.56-10-.88-14.06-2-5.83-11.3-5.23-14.79-1.12-2.75,3.24-1.5,8.58.19,12.1a1.32,1.32,0,0,0,2.27,0Z"/><path d="M291.9,53.33c-.19,9-.28,18.07-.39,27.1,0,2.83.75,7.32-.13,10-.05.14.05.39,0,.52,1-2-1.9.79-2.87-1.11a6,6,0,0,1,0-2.08c-.08-13.57-.05-27.15,0-40.72,0-4.7-7.29-4.71-7.31,0-.05,13-.21,26-.22,39.06a27.15,27.15,0,0,0,.21,5.84c1.07,4.74,6.17,7.09,10.72,6.24,8.19-1.52,7.07-9,7.06-15.32,0-9.86-.05-19.72,0-29.58,0-4.55-7-4.55-7.06,0Z"/><path d="M261.08,60.76a12.58,12.58,0,0,0,1.72-5.07c.23-1.24,0-2.54,1.41-3s2.09.08,2.34,1.23c.78,3.52-.23,7.38.55,10.92s6.43,3.58,7,0c.46-2.65.12-5.53,0-8.21-.14-4.59-.54-9-5.57-10.57-4-1.29-9.75-.18-11.21,4.26-1,3-.5,7.79,1.4,10.4a1.33,1.33,0,0,0,2.27,0Z"/><path d="M267.12,59.79c-.17,7.15-.29,14.3-.42,21.45,0,1,.5,4.58-.11,5.45,1.08-1.53-1.74.11-2.47-.61-.91-.9-.08-.11-.42-.78a6.7,6.7,0,0,1,0-2q-.07-13.78,0-27.59c0-4.7-7.28-4.71-7.31,0,0,5.64-.14,11.28-.17,16.92,0,4.85-1.53,13,1.1,17.44,4.38,7.41,16.54,4,16.83-4.21.3-8.67,0-17.39,0-26.07,0-4.55-6.95-4.54-7.06,0Z"/><path d="M477.12,67c-3.18-2.43-8-1.93-11.83-2.14-4.83-.26-9.64-.5-14.47-.66-9.29-.31-19.25-1.66-28.43,0-2.9.53-2.83,5.19,0,5.78,9.13,1.91,19.15.79,28.43.72,4.82,0,9.64-.16,14.47-.3,3.9-.11,8.55.53,11.83-1.86a.93.93,0,0,0,0-1.57Z"/><path d="M394.24,41.27c-2.42,3.15-1.91,7.89-2.12,11.7-.24,4.7-.48,9.39-.62,14.08-.29,9.11-1.58,18.87.1,27.86.54,2.9,5.2,2.84,5.79,0,1.85-9,.74-18.75.65-27.86-.05-4.69-.19-9.38-.34-14.08-.13-3.87.5-8.47-1.9-11.7a.92.92,0,0,0-1.56,0Z"/><path d="M311.27,41.27c-2.41,3.15-1.91,7.89-2.11,11.7-.25,4.7-.48,9.39-.63,14.08-.28,9.11-1.57,18.87.11,27.86.54,2.9,5.2,2.84,5.78,0,1.85-9,.75-18.75.65-27.86-.05-4.69-.18-9.38-.33-14.08-.13-3.87.49-8.47-1.9-11.7a.93.93,0,0,0-1.57,0Z"/><path d="M311.8,96.54c4.37.92,9,.82,13.42.95q14.43.42,28.86.64,14.18.24,28.34.29c3.92,0,13,1.74,14.62-3.09l-3.16,2.41h0c4.23,0,4.23-6.58,0-6.56h0L397,93.59c-1.66-4.85-10.67-3-14.62-3-9.45.09-18.89.28-28.34.51q-14.43.36-28.86.88c-4.45.17-9.06.1-13.42,1.06a1.82,1.82,0,0,0,0,3.49Z"/><path d="M311.8,43.75c4.37.92,9,.81,13.42.94q14.43.42,28.86.65c9.45.15,18.89.27,28.34.28,3.92,0,13,1.75,14.62-3.08l-3.16,2.4h0c4.23,0,4.23-6.57,0-6.56h0L397,40.79c-1.66-4.84-10.67-3-14.62-3-9.45.09-18.89.28-28.34.52q-14.43.34-28.86.88c-4.45.17-9.06.09-13.42,1a1.83,1.83,0,0,0,0,3.5Z"/><path d="M477.52,79c-10.84-1.62-22.46-.44-33.41-.57-6.68-.07-13.36-.32-20-.39-3.54,0-3.54,5.46,0,5.5,6.68.07,13.37-.18,20-.33,10.8-.25,22.92.62,33.41-2.22.91-.25,1.05-1.83,0-2Z"/><path d="M477.12,92.79c-3.17-2.45-8-2-11.83-2.2-4.83-.29-9.64-.56-14.47-.75-9.29-.35-19.24-1.75-28.43-.11-2.92.52-2.81,5.19,0,5.79,9.11,2,19.15.88,28.43.86,4.82,0,9.64-.11,14.47-.22,3.9-.1,8.54.57,11.83-1.81a.92.92,0,0,0,0-1.56Z"/><path d="M477.52,40.29c-10.84-1.62-22.46-.44-33.41-.57-6.68-.08-13.36-.32-20-.39-3.54,0-3.54,5.46,0,5.5,6.68.07,13.37-.18,20-.33,10.8-.25,22.92.62,33.41-2.22.91-.25,1.05-1.83,0-2Z"/><path d="M477.12,54.09c-3.17-2.45-8-2-11.83-2.2-4.83-.29-9.64-.56-14.47-.75-9.29-.36-19.24-1.75-28.43-.11-2.92.52-2.81,5.18,0,5.79,9.11,2,19.15.88,28.43.86,4.82,0,9.64-.11,14.47-.22,3.9-.1,8.54.57,11.83-1.81a.92.92,0,0,0,0-1.56Z"/><path d="M298.88,150c6.26,9.55,7.62,20.75,10.81,31.48a4.65,4.65,0,0,0,4.37,3.32c3.11,0,6.22.12,9.34.15,2.27,0,4.55,0,6.83,0,1.1,0,2.21,0,3.3,0,.23,0,2.68.12,1.37-.1L332,182.7l.15.21c2.91,4.11,9.9,2.9,9.9-2.68s-7-6.85-9.9-2.68l-.15.2,2.93-2.25c1.3-.23-1.14-.08-1.37-.08-1.09,0-2.2,0-3.3.05-2.28,0-4.56.05-6.83.09-3.12.06-6.23.15-9.34.22l4.37,3.33c-3.51-10.3-6.86-26-17.59-31-1.19-.55-2.82.66-2,2Z"/></g></g></svg>