<?xml version="1.0" encoding="UTF-8"?>
<svg width="304px" height="304px" viewBox="0 0 304 304" version="1.1" xmlns="http://www.w3.org/2000/svg" xmlns:xlink="http://www.w3.org/1999/xlink">
    <title>dots</title>
    <g id="Page-1" stroke="none" stroke-width="1" fill="none" fill-rule="evenodd" opacity="0.327404204">
        <g id="dots-copy-2">
            <g id="Group">
                <rect id="Rectangle" fill-opacity="0" fill="#D8D8D8" x="0" y="0" width="38" height="38"></rect>
                <circle id="Oval" fill="currentColor" transform="translate(19.500000, 19.500000) scale(1, -1) translate(-19.500000, -19.500000) " cx="19.5" cy="19.5" r="1.5"></circle>
            </g>
            <g id="Group" transform="translate(0.000000, 152.000000)">
                <rect id="Rectangle" fill-opacity="0" fill="#D8D8D8" x="0" y="0" width="38" height="38"></rect>
                <circle id="Oval" fill="currentColor" transform="translate(19.500000, 19.500000) scale(1, -1) translate(-19.500000, -19.500000) " cx="19.5" cy="19.5" r="1.5"></circle>
            </g>
            <g id="Group" transform="translate(0.000000, 76.000000)">
                <rect id="Rectangle" fill-opacity="0" fill="#D8D8D8" x="0" y="0" width="38" height="38"></rect>
                <circle id="Oval" fill="currentColor" transform="translate(19.500000, 19.500000) scale(1, -1) translate(-19.500000, -19.500000) " cx="19.5" cy="19.5" r="1.5"></circle>
            </g>
            <g id="Group" transform="translate(0.000000, 228.000000)">
                <rect id="Rectangle" fill-opacity="0" fill="#D8D8D8" x="0" y="0" width="38" height="38"></rect>
                <circle id="Oval" fill="currentColor" transform="translate(19.500000, 19.500000) scale(1, -1) translate(-19.500000, -19.500000) " cx="19.5" cy="19.5" r="1.5"></circle>
            </g>
            <g id="Group" transform="translate(0.000000, 38.000000)">
                <rect id="Rectangle" fill-opacity="0" fill="#D8D8D8" x="0" y="0" width="38" height="38"></rect>
                <circle id="Oval" fill="currentColor" transform="translate(19.500000, 19.500000) scale(1, -1) translate(-19.500000, -19.500000) " cx="19.5" cy="19.5" r="1.5"></circle>
            </g>
            <g id="Group" transform="translate(0.000000, 190.000000)">
                <rect id="Rectangle" fill-opacity="0" fill="#D8D8D8" x="0" y="0" width="38" height="38"></rect>
                <circle id="Oval" fill="currentColor" transform="translate(19.500000, 19.500000) scale(1, -1) translate(-19.500000, -19.500000) " cx="19.5" cy="19.5" r="1.5"></circle>
            </g>
            <g id="Group" transform="translate(0.000000, 114.000000)">
                <rect id="Rectangle" fill-opacity="0" fill="#D8D8D8" x="0" y="0" width="38" height="38"></rect>
                <circle id="Oval" fill="currentColor" transform="translate(19.500000, 19.500000) scale(1, -1) translate(-19.500000, -19.500000) " cx="19.5" cy="19.5" r="1.5"></circle>
            </g>
            <g id="Group" transform="translate(0.000000, 266.000000)">
                <rect id="Rectangle" fill-opacity="0" fill="#D8D8D8" x="0" y="0" width="38" height="38"></rect>
                <circle id="Oval" fill="currentColor" transform="translate(19.500000, 19.500000) scale(1, -1) translate(-19.500000, -19.500000) " cx="19.5" cy="19.5" r="1.5"></circle>
            </g>
            <g id="Group" transform="translate(152.000000, 0.000000)">
                <rect id="Rectangle" fill-opacity="0" fill="#D8D8D8" x="0" y="0" width="38" height="38"></rect>
                <circle id="Oval" fill="currentColor" transform="translate(19.500000, 19.500000) scale(1, -1) translate(-19.500000, -19.500000) " cx="19.5" cy="19.5" r="1.5"></circle>
            </g>
            <g id="Group" transform="translate(152.000000, 152.000000)">
                <rect id="Rectangle" fill-opacity="0" fill="#D8D8D8" x="0" y="0" width="38" height="38"></rect>
                <circle id="Oval" fill="currentColor" transform="translate(19.500000, 19.500000) scale(1, -1) translate(-19.500000, -19.500000) " cx="19.5" cy="19.5" r="1.5"></circle>
            </g>
            <g id="Group" transform="translate(152.000000, 76.000000)">
                <rect id="Rectangle" fill-opacity="0" fill="#D8D8D8" x="0" y="0" width="38" height="38"></rect>
                <circle id="Oval" fill="currentColor" transform="translate(19.500000, 19.500000) scale(1, -1) translate(-19.500000, -19.500000) " cx="19.5" cy="19.5" r="1.5"></circle>
            </g>
            <g id="Group" transform="translate(152.000000, 228.000000)">
                <rect id="Rectangle" fill-opacity="0" fill="#D8D8D8" x="0" y="0" width="38" height="38"></rect>
                <circle id="Oval" fill="currentColor" transform="translate(19.500000, 19.500000) scale(1, -1) translate(-19.500000, -19.500000) " cx="19.5" cy="19.5" r="1.5"></circle>
            </g>
            <g id="Group" transform="translate(152.000000, 38.000000)">
                <rect id="Rectangle" fill-opacity="0" fill="#D8D8D8" x="0" y="0" width="38" height="38"></rect>
                <circle id="Oval" fill="currentColor" transform="translate(19.500000, 19.500000) scale(1, -1) translate(-19.500000, -19.500000) " cx="19.5" cy="19.5" r="1.5"></circle>
            </g>
            <g id="Group" transform="translate(152.000000, 190.000000)">
                <rect id="Rectangle" fill-opacity="0" fill="#D8D8D8" x="0" y="0" width="38" height="38"></rect>
                <circle id="Oval" fill="currentColor" transform="translate(19.500000, 19.500000) scale(1, -1) translate(-19.500000, -19.500000) " cx="19.5" cy="19.5" r="1.5"></circle>
            </g>
            <g id="Group" transform="translate(152.000000, 114.000000)">
                <rect id="Rectangle" fill-opacity="0" fill="#D8D8D8" x="0" y="0" width="38" height="38"></rect>
                <circle id="Oval" fill="currentColor" transform="translate(19.500000, 19.500000) scale(1, -1) translate(-19.500000, -19.500000) " cx="19.5" cy="19.5" r="1.5"></circle>
            </g>
            <g id="Group" transform="translate(152.000000, 266.000000)">
                <rect id="Rectangle" fill-opacity="0" fill="#D8D8D8" x="0" y="0" width="38" height="38"></rect>
                <circle id="Oval" fill="currentColor" transform="translate(19.500000, 19.500000) scale(1, -1) translate(-19.500000, -19.500000) " cx="19.5" cy="19.5" r="1.5"></circle>
            </g>
            <g id="Group" transform="translate(38.000000, 0.000000)">
                <rect id="Rectangle" fill-opacity="0" fill="#D8D8D8" x="0" y="0" width="38" height="38"></rect>
                <circle id="Oval" fill="currentColor" transform="translate(19.500000, 19.500000) scale(1, -1) translate(-19.500000, -19.500000) " cx="19.5" cy="19.5" r="1.5"></circle>
            </g>
            <g id="Group" transform="translate(38.000000, 152.000000)">
                <rect id="Rectangle" fill-opacity="0" fill="#D8D8D8" x="0" y="0" width="38" height="38"></rect>
                <circle id="Oval" fill="currentColor" transform="translate(19.500000, 19.500000) scale(1, -1) translate(-19.500000, -19.500000) " cx="19.5" cy="19.5" r="1.5"></circle>
            </g>
            <g id="Group" transform="translate(38.000000, 76.000000)">
                <rect id="Rectangle" fill-opacity="0" fill="#D8D8D8" x="0" y="0" width="38" height="38"></rect>
                <circle id="Oval" fill="currentColor" transform="translate(19.500000, 19.500000) scale(1, -1) translate(-19.500000, -19.500000) " cx="19.5" cy="19.5" r="1.5"></circle>
            </g>
            <g id="Group" transform="translate(38.000000, 228.000000)">
                <rect id="Rectangle" fill-opacity="0" fill="#D8D8D8" x="0" y="0" width="38" height="38"></rect>
                <circle id="Oval" fill="currentColor" transform="translate(19.500000, 19.500000) scale(1, -1) translate(-19.500000, -19.500000) " cx="19.5" cy="19.5" r="1.5"></circle>
            </g>
            <g id="Group" transform="translate(38.000000, 38.000000)">
                <rect id="Rectangle" fill-opacity="0" fill="#D8D8D8" x="0" y="0" width="38" height="38"></rect>
                <circle id="Oval" fill="currentColor" transform="translate(19.500000, 19.500000) scale(1, -1) translate(-19.500000, -19.500000) " cx="19.5" cy="19.5" r="1.5"></circle>
            </g>
            <g id="Group" transform="translate(38.000000, 190.000000)">
                <rect id="Rectangle" fill-opacity="0" fill="#D8D8D8" x="0" y="0" width="38" height="38"></rect>
                <circle id="Oval" fill="currentColor" transform="translate(19.500000, 19.500000) scale(1, -1) translate(-19.500000, -19.500000) " cx="19.5" cy="19.5" r="1.5"></circle>
            </g>
            <g id="Group" transform="translate(38.000000, 114.000000)">
                <rect id="Rectangle" fill-opacity="0" fill="#D8D8D8" x="0" y="0" width="38" height="38"></rect>
                <circle id="Oval" fill="currentColor" transform="translate(19.500000, 19.500000) scale(1, -1) translate(-19.500000, -19.500000) " cx="19.5" cy="19.5" r="1.5"></circle>
            </g>
            <g id="Group" transform="translate(38.000000, 266.000000)">
                <rect id="Rectangle" fill-opacity="0" fill="#D8D8D8" x="0" y="0" width="38" height="38"></rect>
                <circle id="Oval" fill="currentColor" transform="translate(19.500000, 19.500000) scale(1, -1) translate(-19.500000, -19.500000) " cx="19.5" cy="19.5" r="1.5"></circle>
            </g>
            <g id="Group" transform="translate(190.000000, 0.000000)">
                <rect id="Rectangle" fill-opacity="0" fill="#D8D8D8" x="0" y="0" width="38" height="38"></rect>
                <circle id="Oval" fill="currentColor" transform="translate(19.500000, 19.500000) scale(1, -1) translate(-19.500000, -19.500000) " cx="19.5" cy="19.5" r="1.5"></circle>
            </g>
            <g id="Group" transform="translate(190.000000, 152.000000)">
                <rect id="Rectangle" fill-opacity="0" fill="#D8D8D8" x="0" y="0" width="38" height="38"></rect>
                <circle id="Oval" fill="currentColor" transform="translate(19.500000, 19.500000) scale(1, -1) translate(-19.500000, -19.500000) " cx="19.5" cy="19.5" r="1.5"></circle>
            </g>
            <g id="Group" transform="translate(190.000000, 76.000000)">
                <rect id="Rectangle" fill-opacity="0" fill="#D8D8D8" x="0" y="0" width="38" height="38"></rect>
                <circle id="Oval" fill="currentColor" transform="translate(19.500000, 19.500000) scale(1, -1) translate(-19.500000, -19.500000) " cx="19.5" cy="19.5" r="1.5"></circle>
            </g>
            <g id="Group" transform="translate(190.000000, 228.000000)">
                <rect id="Rectangle" fill-opacity="0" fill="#D8D8D8" x="0" y="0" width="38" height="38"></rect>
                <circle id="Oval" fill="currentColor" transform="translate(19.500000, 19.500000) scale(1, -1) translate(-19.500000, -19.500000) " cx="19.5" cy="19.5" r="1.5"></circle>
            </g>
            <g id="Group" transform="translate(190.000000, 38.000000)">
                <rect id="Rectangle" fill-opacity="0" fill="#D8D8D8" x="0" y="0" width="38" height="38"></rect>
                <circle id="Oval" fill="currentColor" transform="translate(19.500000, 19.500000) scale(1, -1) translate(-19.500000, -19.500000) " cx="19.5" cy="19.5" r="1.5"></circle>
            </g>
            <g id="Group" transform="translate(190.000000, 190.000000)">
                <rect id="Rectangle" fill-opacity="0" fill="#D8D8D8" x="0" y="0" width="38" height="38"></rect>
                <circle id="Oval" fill="currentColor" transform="translate(19.500000, 19.500000) scale(1, -1) translate(-19.500000, -19.500000) " cx="19.5" cy="19.5" r="1.5"></circle>
            </g>
            <g id="Group" transform="translate(190.000000, 114.000000)">
                <rect id="Rectangle" fill-opacity="0" fill="#D8D8D8" x="0" y="0" width="38" height="38"></rect>
                <circle id="Oval" fill="currentColor" transform="translate(19.500000, 19.500000) scale(1, -1) translate(-19.500000, -19.500000) " cx="19.5" cy="19.5" r="1.5"></circle>
            </g>
            <g id="Group" transform="translate(190.000000, 266.000000)">
                <rect id="Rectangle" fill-opacity="0" fill="#D8D8D8" x="0" y="0" width="38" height="38"></rect>
                <circle id="Oval" fill="currentColor" transform="translate(19.500000, 19.500000) scale(1, -1) translate(-19.500000, -19.500000) " cx="19.5" cy="19.5" r="1.5"></circle>
            </g>
            <g id="Group" transform="translate(76.000000, 0.000000)">
                <rect id="Rectangle" fill-opacity="0" fill="#D8D8D8" x="0" y="0" width="38" height="38"></rect>
                <circle id="Oval" fill="currentColor" transform="translate(19.500000, 19.500000) scale(1, -1) translate(-19.500000, -19.500000) " cx="19.5" cy="19.5" r="1.5"></circle>
            </g>
            <g id="Group" transform="translate(76.000000, 152.000000)">
                <rect id="Rectangle" fill-opacity="0" fill="#D8D8D8" x="0" y="0" width="38" height="38"></rect>
                <circle id="Oval" fill="currentColor" transform="translate(19.500000, 19.500000) scale(1, -1) translate(-19.500000, -19.500000) " cx="19.5" cy="19.5" r="1.5"></circle>
            </g>
            <g id="Group" transform="translate(76.000000, 76.000000)">
                <rect id="Rectangle" fill-opacity="0" fill="#D8D8D8" x="0" y="0" width="38" height="38"></rect>
                <circle id="Oval" fill="currentColor" transform="translate(19.500000, 19.500000) scale(1, -1) translate(-19.500000, -19.500000) " cx="19.5" cy="19.5" r="1.5"></circle>
            </g>
            <g id="Group" transform="translate(76.000000, 228.000000)">
                <rect id="Rectangle" fill-opacity="0" fill="#D8D8D8" x="0" y="0" width="38" height="38"></rect>
                <circle id="Oval" fill="currentColor" transform="translate(19.500000, 19.500000) scale(1, -1) translate(-19.500000, -19.500000) " cx="19.5" cy="19.5" r="1.5"></circle>
            </g>
            <g id="Group" transform="translate(76.000000, 38.000000)">
                <rect id="Rectangle" fill-opacity="0" fill="#D8D8D8" x="0" y="0" width="38" height="38"></rect>
                <circle id="Oval" fill="currentColor" transform="translate(19.500000, 19.500000) scale(1, -1) translate(-19.500000, -19.500000) " cx="19.5" cy="19.5" r="1.5"></circle>
            </g>
            <g id="Group" transform="translate(76.000000, 190.000000)">
                <rect id="Rectangle" fill-opacity="0" fill="#D8D8D8" x="0" y="0" width="38" height="38"></rect>
                <circle id="Oval" fill="currentColor" transform="translate(19.500000, 19.500000) scale(1, -1) translate(-19.500000, -19.500000) " cx="19.5" cy="19.5" r="1.5"></circle>
            </g>
            <g id="Group" transform="translate(76.000000, 114.000000)">
                <rect id="Rectangle" fill-opacity="0" fill="#D8D8D8" x="0" y="0" width="38" height="38"></rect>
                <circle id="Oval" fill="currentColor" transform="translate(19.500000, 19.500000) scale(1, -1) translate(-19.500000, -19.500000) " cx="19.5" cy="19.5" r="1.5"></circle>
            </g>
            <g id="Group" transform="translate(76.000000, 266.000000)">
                <rect id="Rectangle" fill-opacity="0" fill="#D8D8D8" x="0" y="0" width="38" height="38"></rect>
                <circle id="Oval" fill="currentColor" transform="translate(19.500000, 19.500000) scale(1, -1) translate(-19.500000, -19.500000) " cx="19.5" cy="19.5" r="1.5"></circle>
            </g>
            <g id="Group" transform="translate(228.000000, 0.000000)">
                <rect id="Rectangle" fill-opacity="0" fill="#D8D8D8" x="0" y="0" width="38" height="38"></rect>
                <circle id="Oval" fill="currentColor" transform="translate(19.500000, 19.500000) scale(1, -1) translate(-19.500000, -19.500000) " cx="19.5" cy="19.5" r="1.5"></circle>
            </g>
            <g id="Group" transform="translate(228.000000, 152.000000)">
                <rect id="Rectangle" fill-opacity="0" fill="#D8D8D8" x="0" y="0" width="38" height="38"></rect>
                <circle id="Oval" fill="currentColor" transform="translate(19.500000, 19.500000) scale(1, -1) translate(-19.500000, -19.500000) " cx="19.5" cy="19.5" r="1.5"></circle>
            </g>
            <g id="Group" transform="translate(228.000000, 76.000000)">
                <rect id="Rectangle" fill-opacity="0" fill="#D8D8D8" x="0" y="0" width="38" height="38"></rect>
                <circle id="Oval" fill="currentColor" transform="translate(19.500000, 19.500000) scale(1, -1) translate(-19.500000, -19.500000) " cx="19.5" cy="19.5" r="1.5"></circle>
            </g>
            <g id="Group" transform="translate(228.000000, 228.000000)">
                <rect id="Rectangle" fill-opacity="0" fill="#D8D8D8" x="0" y="0" width="38" height="38"></rect>
                <circle id="Oval" fill="currentColor" transform="translate(19.500000, 19.500000) scale(1, -1) translate(-19.500000, -19.500000) " cx="19.5" cy="19.5" r="1.5"></circle>
            </g>
            <g id="Group" transform="translate(228.000000, 38.000000)">
                <rect id="Rectangle" fill-opacity="0" fill="#D8D8D8" x="0" y="0" width="38" height="38"></rect>
                <circle id="Oval" fill="currentColor" transform="translate(19.500000, 19.500000) scale(1, -1) translate(-19.500000, -19.500000) " cx="19.5" cy="19.5" r="1.5"></circle>
            </g>
            <g id="Group" transform="translate(228.000000, 190.000000)">
                <rect id="Rectangle" fill-opacity="0" fill="#D8D8D8" x="0" y="0" width="38" height="38"></rect>
                <circle id="Oval" fill="currentColor" transform="translate(19.500000, 19.500000) scale(1, -1) translate(-19.500000, -19.500000) " cx="19.5" cy="19.5" r="1.5"></circle>
            </g>
            <g id="Group" transform="translate(228.000000, 114.000000)">
                <rect id="Rectangle" fill-opacity="0" fill="#D8D8D8" x="0" y="0" width="38" height="38"></rect>
                <circle id="Oval" fill="currentColor" transform="translate(19.500000, 19.500000) scale(1, -1) translate(-19.500000, -19.500000) " cx="19.5" cy="19.5" r="1.5"></circle>
            </g>
            <g id="Group" transform="translate(228.000000, 266.000000)">
                <rect id="Rectangle" fill-opacity="0" fill="#D8D8D8" x="0" y="0" width="38" height="38"></rect>
                <circle id="Oval" fill="currentColor" transform="translate(19.500000, 19.500000) scale(1, -1) translate(-19.500000, -19.500000) " cx="19.5" cy="19.5" r="1.5"></circle>
            </g>
            <g id="Group" transform="translate(114.000000, 0.000000)">
                <rect id="Rectangle" fill-opacity="0" fill="#D8D8D8" x="0" y="0" width="38" height="38"></rect>
                <circle id="Oval" fill="currentColor" transform="translate(19.500000, 19.500000) scale(1, -1) translate(-19.500000, -19.500000) " cx="19.5" cy="19.5" r="1.5"></circle>
            </g>
            <g id="Group" transform="translate(114.000000, 152.000000)">
                <rect id="Rectangle" fill-opacity="0" fill="#D8D8D8" x="0" y="0" width="38" height="38"></rect>
                <circle id="Oval" fill="currentColor" transform="translate(19.500000, 19.500000) scale(1, -1) translate(-19.500000, -19.500000) " cx="19.5" cy="19.5" r="1.5"></circle>
            </g>
            <g id="Group" transform="translate(114.000000, 76.000000)">
                <rect id="Rectangle" fill-opacity="0" fill="#D8D8D8" x="0" y="0" width="38" height="38"></rect>
                <circle id="Oval" fill="currentColor" transform="translate(19.500000, 19.500000) scale(1, -1) translate(-19.500000, -19.500000) " cx="19.5" cy="19.5" r="1.5"></circle>
            </g>
            <g id="Group" transform="translate(114.000000, 228.000000)">
                <rect id="Rectangle" fill-opacity="0" fill="#D8D8D8" x="0" y="0" width="38" height="38"></rect>
                <circle id="Oval" fill="currentColor" transform="translate(19.500000, 19.500000) scale(1, -1) translate(-19.500000, -19.500000) " cx="19.5" cy="19.5" r="1.5"></circle>
            </g>
            <g id="Group" transform="translate(114.000000, 38.000000)">
                <rect id="Rectangle" fill-opacity="0" fill="#D8D8D8" x="0" y="0" width="38" height="38"></rect>
                <circle id="Oval" fill="currentColor" transform="translate(19.500000, 19.500000) scale(1, -1) translate(-19.500000, -19.500000) " cx="19.5" cy="19.5" r="1.5"></circle>
            </g>
            <g id="Group" transform="translate(114.000000, 190.000000)">
                <rect id="Rectangle" fill-opacity="0" fill="#D8D8D8" x="0" y="0" width="38" height="38"></rect>
                <circle id="Oval" fill="currentColor" transform="translate(19.500000, 19.500000) scale(1, -1) translate(-19.500000, -19.500000) " cx="19.5" cy="19.5" r="1.5"></circle>
            </g>
            <g id="Group" transform="translate(114.000000, 114.000000)">
                <rect id="Rectangle" fill-opacity="0" fill="#D8D8D8" x="0" y="0" width="38" height="38"></rect>
                <circle id="Oval" fill="currentColor" transform="translate(19.500000, 19.500000) scale(1, -1) translate(-19.500000, -19.500000) " cx="19.5" cy="19.5" r="1.5"></circle>
            </g>
            <g id="Group" transform="translate(114.000000, 266.000000)">
                <rect id="Rectangle" fill-opacity="0" fill="#D8D8D8" x="0" y="0" width="38" height="38"></rect>
                <circle id="Oval" fill="currentColor" transform="translate(19.500000, 19.500000) scale(1, -1) translate(-19.500000, -19.500000) " cx="19.5" cy="19.5" r="1.5"></circle>
            </g>
            <g id="Group" transform="translate(266.000000, 0.000000)">
                <rect id="Rectangle" fill-opacity="0" fill="#D8D8D8" x="0" y="0" width="38" height="38"></rect>
                <circle id="Oval" fill="currentColor" transform="translate(19.500000, 19.500000) scale(1, -1) translate(-19.500000, -19.500000) " cx="19.5" cy="19.5" r="1.5"></circle>
            </g>
            <g id="Group" transform="translate(266.000000, 152.000000)">
                <rect id="Rectangle" fill-opacity="0" fill="#D8D8D8" x="0" y="0" width="38" height="38"></rect>
                <circle id="Oval" fill="currentColor" transform="translate(19.500000, 19.500000) scale(1, -1) translate(-19.500000, -19.500000) " cx="19.5" cy="19.5" r="1.5"></circle>
            </g>
            <g id="Group" transform="translate(266.000000, 76.000000)">
                <rect id="Rectangle" fill-opacity="0" fill="#D8D8D8" x="0" y="0" width="38" height="38"></rect>
                <circle id="Oval" fill="currentColor" transform="translate(19.500000, 19.500000) scale(1, -1) translate(-19.500000, -19.500000) " cx="19.5" cy="19.5" r="1.5"></circle>
            </g>
            <g id="Group" transform="translate(266.000000, 228.000000)">
                <rect id="Rectangle" fill-opacity="0" fill="#D8D8D8" x="0" y="0" width="38" height="38"></rect>
                <circle id="Oval" fill="currentColor" transform="translate(19.500000, 19.500000) scale(1, -1) translate(-19.500000, -19.500000) " cx="19.5" cy="19.5" r="1.5"></circle>
            </g>
            <g id="Group" transform="translate(266.000000, 38.000000)">
                <rect id="Rectangle" fill-opacity="0" fill="#D8D8D8" x="0" y="0" width="38" height="38"></rect>
                <circle id="Oval" fill="currentColor" transform="translate(19.500000, 19.500000) scale(1, -1) translate(-19.500000, -19.500000) " cx="19.5" cy="19.5" r="1.5"></circle>
            </g>
            <g id="Group" transform="translate(266.000000, 190.000000)">
                <rect id="Rectangle" fill-opacity="0" fill="#D8D8D8" x="0" y="0" width="38" height="38"></rect>
                <circle id="Oval" fill="currentColor" transform="translate(19.500000, 19.500000) scale(1, -1) translate(-19.500000, -19.500000) " cx="19.5" cy="19.5" r="1.5"></circle>
            </g>
            <g id="Group" transform="translate(266.000000, 114.000000)">
                <rect id="Rectangle" fill-opacity="0" fill="#D8D8D8" x="0" y="0" width="38" height="38"></rect>
                <circle id="Oval" fill="currentColor" transform="translate(19.500000, 19.500000) scale(1, -1) translate(-19.500000, -19.500000) " cx="19.5" cy="19.5" r="1.5"></circle>
            </g>
            <g id="Group" transform="translate(266.000000, 266.000000)">
                <rect id="Rectangle" fill-opacity="0" fill="#D8D8D8" x="0" y="0" width="38" height="38"></rect>
                <circle id="Oval" fill="currentColor" transform="translate(19.500000, 19.500000) scale(1, -1) translate(-19.500000, -19.500000) " cx="19.5" cy="19.5" r="1.5"></circle>
            </g>
        </g>
    </g>
</svg>