<?xml version="1.0" encoding="UTF-8"?>
<svg width="56px" height="56px" viewBox="0 0 56 56" version="1.1" xmlns="http://www.w3.org/2000/svg" xmlns:xlink="http://www.w3.org/1999/xlink">
    <title>favicon</title>
    <defs>
        <radialGradient cx="50%" cy="50%" fx="50%" fy="50%" r="50%" id="radialGradient-1">
            <stop stop-color="#E6DE00" offset="0%"></stop>
            <stop stop-color="#FFF22E" offset="100%"></stop>
        </radialGradient>
    </defs>
    <g id="Page-1" stroke="none" stroke-width="1" fill="none" fill-rule="evenodd">
        <g id="favicon">
            <circle id="Oval" fill="url(#radialGradient-1)" cx="28" cy="28" r="10"></circle>
            <path d="M28.0975714,14.0044077 C34.7163368,14.0044077 40.7147044,15.6805678 45.0501781,18.4177495 C49.3112542,21.1079608 51.968933,24.8251198 51.968933,28.9833207 C51.968933,33.0404403 49.5021131,36.3369785 45.4851135,38.658473 C41.2014841,41.1340574 35.1578486,42.5044077 28.3901227,42.5044077 C21.7159894,42.5044077 15.6111315,41.005273 11.2044753,38.5144446 C9.01739213,37.2782126 7.25002778,35.7984309 6.04636193,34.1350576 C4.90903668,32.5633619 4.27696584,30.8282254 4.27696584,28.9833207 C4.27696584,25.0646675 7.0367145,21.2758395 11.4398265,18.4900928 C15.7398135,15.7695909 21.6148081,14.0044077 28.0975714,14.0044077 Z" id="Oval-Copy" stroke="#BAB8B8" stroke-width="0.5" transform="translate(28.122949, 28.254408) scale(-1, 1) rotate(-315.000000) translate(-28.122949, -28.254408) "></path>
            <path d="M28.0975714,14.0044077 C34.7163368,14.0044077 40.7147044,15.6805678 45.0501781,18.4177495 C49.3112542,21.1079608 51.968933,24.8251198 51.968933,28.9833207 C51.968933,33.0404403 49.5021131,36.3369785 45.4851135,38.658473 C41.2014841,41.1340574 35.1578486,42.5044077 28.3901227,42.5044077 C21.7159894,42.5044077 15.6111315,41.005273 11.2044753,38.5144446 C9.01739213,37.2782126 7.25002778,35.7984309 6.04636193,34.1350576 C4.90903668,32.5633619 4.27696584,30.8282254 4.27696584,28.9833207 C4.27696584,25.0646675 7.0367145,21.2758395 11.4398265,18.4900928 C15.7398135,15.7695909 21.6148081,14.0044077 28.0975714,14.0044077 Z" id="Oval-Copy-2" stroke="#737373" stroke-width="0.5" transform="translate(28.122949, 28.254408) rotate(-315.000000) translate(-28.122949, -28.254408) "></path>
            <circle id="Oval" fill="#F5EC05" cx="11.5" cy="11.5" r="3.5"></circle>
            <circle id="Oval-Copy-3" fill="#F5EC05" cx="38.5" cy="37.5" r="3.5"></circle>
        </g>
    </g>
</svg>